<?xml version="1.0" standalone="no"?><!DOCTYPE svg PUBLIC "-//W3C//DTD SVG 1.1//EN" "http://www.w3.org/Graphics/SVG/1.1/DTD/svg11.dtd"><svg class="icon" width="200px" height="200.00px" viewBox="0 0 1024 1024" version="1.1" xmlns="http://www.w3.org/2000/svg"><path d="M942.857143 1024c-19.657143 0-38.514286-7.771429-52.342857-21.714286L818.285714 930.057143c-98.171429 59.885714-222.285714 56.457143-317.028571-8.685714-42.057143-28.8-75.885714-68.228571-97.828572-114.171429-76.457143-26.285714-139.885714-81.028571-177.142857-152.8-63.2-23.885714-117.714286-65.942857-156.914285-121.028571C25.142857 471.085714 3.314286 395.657143 7.657143 319.314286 17.6 140.228571 165.714286 0 344.914286 0c6.285714 0 12.571429 0.228571 18.857143 0.571429 73.942857 3.885714 144.457143 32 200.571428 80.228571 49.257143 42.171429 85.6 97.6 104.457143 159.657143 69.257143 41.828571 119.657143 108.8 140.8 186.857143 31.085714 17.6 58.742857 40.685714 81.6 68.228571 76.571429 92.8 88.342857 222.971429 29.6 328l74.285714 74.285714c28.914286 28.914286 28.914286 75.771429 0 104.571429-13.828571 13.828571-32.571429 21.6-52.228571 21.6z" fill="#25467A" /><path d="M961.257143 968.342857c-10.171429 10.171429-26.628571 10.171429-36.685714 0L709.257143 753.142857c-10.171429-10.171429-10.171429-26.628571 0-36.685714s26.628571-10.171429 36.685714 0l215.314286 215.2c10.171429 10.057143 10.171429 26.514286 0 36.685714z" fill="#FFCC80" /><path d="M666.171429 947.542857c-124.228571-0.114286-232-86.171429-259.542858-207.314286-32.685714-143.428571 57.142857-286.171429 200.685715-318.857142 143.428571-32.685714 286.285714 57.142857 318.971428 200.571428 32.685714 143.428571-57.142857 286.171429-200.685714 318.857143-19.542857 4.457143-39.428571 6.742857-59.428571 6.742857z" fill="#25467A" /><path d="M422.742857 681.142857a243.657143 243.542857 0 1 0 487.314286 0 243.657143 243.542857 0 1 0-487.314286 0Z" fill="#EF5350" /><path d="M574.514286 834.4c-31.314286 7.2-63.657143 8-95.314286 2.628571-24.571429-29.485714-41.828571-64.342857-50.285714-101.828571-29.828571-131.085714 52.342857-261.6 183.428571-291.428571 31.314286-7.2 63.657143-8 95.314286-2.628572 24.571429 29.485714 41.828571 64.342857 50.285714 101.828572 29.942857 131.085714-52.228571 261.6-183.428571 291.428571z" fill="#E53935" /><path d="M891.314286 681.371429c-0.114286 124-100.685714 224.457143-224.8 224.342857-78.4-0.114286-151.085714-41.028571-191.771429-108.114286 88.457143 86.971429 230.514286 85.828571 317.485714-2.628571 71.885714-73.142857 85.142857-185.6 32.228572-273.485715l1.142857 1.142857c42.171429 42.057143 65.828571 99.2 65.714286 158.742858z" fill="#C62828" /><path d="M810.4 507.2c-34.857143-29.942857-81.6-34.4-83.885714-28.914286-1.942857 4.8 29.6 14.971429 71.428571 51.428572 36 31.314286 49.028571 55.314286 53.028572 52.914285 4.914286-3.2-7.085714-46.628571-40.571429-75.428571z" fill="#FFCDD2" /><path d="M238.971429 509.485714a266.857143 266.742857 0 1 0 533.714285 0 266.857143 266.742857 0 1 0-533.714285 0Z" fill="#EF5350" /><path d="M405.142857 677.371429c-34.285714 7.885714-69.828571 8.8-104.457143 2.857142-26.971429-32.228571-45.828571-70.514286-55.085714-111.542857-32.685714-143.542857 57.371429-286.514286 201.028571-319.2 34.285714-7.885714 69.828571-8.8 104.457143-2.857143 26.971429 32.228571 45.828571 70.514286 55.085715 111.542858C638.857143 501.714286 548.8 644.685714 405.142857 677.371429z" fill="#E53935" /><path d="M752.114286 509.828571c0.114286 135.771429-109.942857 245.828571-245.714286 245.942858-65.257143 0-127.771429-25.828571-173.942857-72-14.057143-14.057143-26.285714-29.6-36.571429-46.628572 96.914286 95.2 252.685714 93.714286 347.771429-3.2 78.628571-80 93.028571-203.085714 35.2-299.2l1.142857 1.142857c46.285714 46.057143 72.228571 108.685714 72.114286 173.942857z" fill="#C62828" /><path d="M663.542857 318.971429c-38.171429-32.8-89.371429-37.714286-91.885714-31.657143-2.171429 5.257143 32.457143 16.457143 78.285714 56.228571 39.428571 34.285714 53.714286 60.571429 58.057143 57.942857 5.371429-3.314286-7.771429-50.971429-44.457143-82.514285z" fill="#FFCDD2" /><path d="M55.2 337.942857a290.057143 289.942857 0 1 0 580.114286 0 290.057143 289.942857 0 1 0-580.114286 0Z" fill="#EF5350" /><path d="M610.742857 337.6c0.114286 147.542857-119.542857 267.2-267.085714 267.314286-70.971429 0-138.971429-28.114286-189.142857-78.285715-15.2-15.2-28.571429-32.228571-39.771429-50.628571 105.257143 103.542857 274.514286 102.171429 378.057143-2.971429 85.714286-87.085714 101.485714-221.142857 38.285714-325.6l1.257143 1.257143c50.4 49.942857 78.628571 117.942857 78.4 188.914286z" fill="#C62828" /><path d="M395.085714 69.6c-53.028571-13.371429-105.257143 6.857143-104.685714 13.942857 0.457143 6.057143 39.428571 0.228571 103.428571 16.571429 54.971429 14.057143 81.714286 32.8 84.571429 28 3.657143-5.828571-32.342857-45.6-83.314286-58.514286z" fill="#FFCDD2" /><path d="M318.171429 403.314286c-35.085714 0-63.542857-28.457143-63.542858-63.542857-0.228571-6.971429 5.257143-12.914286 12.342858-13.142858 6.971429-0.228571 12.914286 5.257143 13.142857 12.342858v0.8c0 21.028571 17.028571 38.171429 38.171428 38.171428s38.171429-17.028571 38.171429-38.171428c0-6.971429 5.714286-12.685714 12.685714-12.685715s12.685714 5.714286 12.685714 12.685715c-0.114286 35.085714-28.457143 63.542857-63.657142 63.542857zM152.914286 238.057143c0 21.028571 17.028571 38.171429 38.057143 38.171428s38.171429-17.028571 38.171428-38.057142-17.028571-38.171429-38.057143-38.171429c-21.142857 0-38.171429 17.028571-38.171428 38.057143 0 0.114286 0 0.114286 0 0zM407.2 238.057143c0 21.028571 17.028571 38.171429 38.057143 38.171428s38.171429-17.028571 38.171428-38.057142-16.914286-38.171429-38.057142-38.171429c-21.142857 0-38.171429 17.028571-38.171429 38.057143 0 0.114286 0 0.114286 0 0z" fill="#25467A" /><path d="M140.114286 301.6H89.257143c-14.057143-0.342857-25.714286 10.857143-25.942857 24.914286-0.342857 14.057143 10.857143 25.714286 24.914285 25.942857h51.885715c14.057143 0.342857 25.714286-10.857143 25.942857-24.914286 0.342857-14.057143-10.857143-25.714286-24.914286-25.942857h-1.028571z m406.971428 0h-50.857143c-14.057143-0.342857-25.714286 10.857143-25.942857 24.914286-0.342857 14.057143 10.857143 25.714286 24.914286 25.942857h51.885714c14.057143 0.342857 25.714286-10.857143 25.942857-24.914286 0.342857-14.057143-10.857143-25.714286-24.914285-25.942857h-1.028572z" fill="#FFCDD2" /></svg>