<?xml version="1.0" standalone="no"?><!DOCTYPE svg PUBLIC "-//W3C//DTD SVG 1.1//EN" "http://www.w3.org/Graphics/SVG/1.1/DTD/svg11.dtd"><svg class="icon" width="200px" height="197.68px" viewBox="0 0 1036 1024" version="1.1" xmlns="http://www.w3.org/2000/svg"><path d="M512 1017.6c-112 0-199.2-12.114286-259.2-36-29.257143-11.657143-52.342857-26.285714-68.571429-43.657143-23.085714-24.571429-28.228571-49.485714-28.457142-66.285714-47.2-25.028571-84.571429-56.457143-111.314286-93.485714C15.314286 737.714286 0 691.314286 0 644V258.628571c0-26.4 9.028571-66.285714 51.885714-105.942857 27.771429-25.714286 66.285714-48.342857 114.514286-67.2C259.428571 48.914286 382.171429 28.914286 512 28.914286c91.542857 0 180 9.942857 257.485714 29.028571 78.285714-40 156.914286-51.314286 189.257143-51.428571h0.342857c35.771429 0.457143 64.571429 29.485714 64.914286 65.257143-0.114286 24.685714-6.057143 68.114286-21.6 116.571428 14.171429 22.285714 21.6 46.171429 21.6 70.4v385.371429c0 47.314286-15.428571 93.714286-44.457143 134.057143-26.628571 37.142857-64 68.457143-111.314286 93.485714-0.342857 27.2-13.6 76.685714-97.028571 109.942857-60 23.885714-147.2 36-259.2 36z" fill="#25467A" /><path d="M512 614.857143H203.771429v255.771428c0 45.028571 75.428571 98.971429 308.228571 98.971429s308.228571-53.942857 308.228571-98.971429V614.857143H512z" fill="#BDBDBD" /><path d="M512 258.628571H48v385.371429c0 113.6 113.6 249.828571 464 249.828571s464-136.228571 464-249.828571V258.628571H512z" fill="#EEEEEE" /><path d="M976 258.628571v385.371429c0 113.6-113.6 249.828571-464 249.828571-19.657143 0-38.628571-0.457143-56.914286-1.257142 305.942857-14.057143 407.085714-141.371429 407.085715-248.571429V258.628571H976z" fill="#E0E0E0" /><path d="M48 258.628571v385.371429c0 113.6 113.6 249.828571 464 249.828571 19.771429 0 38.628571-0.457143 56.914286-1.257142-305.942857-14.057143-407.085714-141.371429-407.085715-248.571429V258.628571H48z" fill="#FFFFFF" /><path d="M48 258.628571a464 181.714286 0 1 0 928 0 464 181.714286 0 1 0-928 0Z" fill="#FFFFFF" /><path d="M512 374.857143c-113.257143 0-219.542857-17.371429-299.428571-48.914286-72.228571-28.457143-99.2-59.428571-99.2-72.342857s26.971429-43.771429 99.2-72.342857c79.885714-31.542857 186.171429-48.8 299.428571-48.8s219.542857 17.371429 299.428571 48.914286c72.228571 28.457143 99.2 59.428571 99.2 72.342857s-26.971429 43.771429-99.2 72.228571C731.542857 357.485714 625.257143 374.857143 512 374.857143z" fill="#EEEEEE" /><path d="M861.142857 302.285714c-16 9.142857-32.571429 17.028571-49.714286 23.657143-79.885714 31.542857-186.171429 48.914286-299.428571 48.914286s-219.542857-17.371429-299.314286-48.8c-17.142857-6.628571-33.828571-14.514286-49.714285-23.657143 16-9.142857 32.571429-17.028571 49.714285-23.657143 79.771429-31.542857 186.171429-48.8 299.314286-48.8s219.542857 17.371429 299.428571 48.8c17.142857 6.514286 33.714286 14.4 49.714286 23.542857z" fill="#FFCD40" /><path d="M867.657143 325.942857C761.142857 432.457143 687.314286 382.971429 667.428571 363.085714s-69.485714-93.828571 37.142858-200.342857c85.257143-85.257143 212.571429-108.114286 254.628571-108.342857 8.571429 0 17.028571 8.342857 16.914286 16.914286-0.342857 42.057143-23.2 169.371429-108.457143 254.628571z" fill="#689F38" /><path d="M627.657143 338.057143c87.771429 87.771429 148.571429 46.971429 165.142857 30.628571s57.257143-77.257143-30.628571-165.142857c-70.285714-70.285714-175.2-89.028571-209.828572-89.257143-7.085714 0-13.942857 6.857143-13.942857 13.942857 0.228571 34.628571 19.085714 139.542857 89.257143 209.828572z" fill="#7CB342" /><path d="M512 753.371429c-38.171429 0-69.142857-30.971429-69.142857-69.257143 0-7.657143 6.171429-13.828571 13.828571-13.828572 7.314286 0 13.485714 5.714286 13.828572 13.028572v0.8c-0.342857 22.971429 17.942857 41.828571 40.8 42.171428 22.971429 0.342857 41.828571-17.942857 42.171428-40.8v-1.371428c-0.228571-7.657143 5.828571-14.057143 13.371429-14.285715 7.657143-0.228571 14.057143 5.828571 14.285714 13.371429v0.8c0 38.4-30.971429 69.371429-69.142857 69.371429zM332.114286 573.485714c0.342857 22.971429 19.314286 41.257143 42.171428 40.8 22.4-0.342857 40.457143-18.4 40.8-40.8 0.342857-22.971429-17.942857-41.828571-40.8-42.171428s-41.828571 17.942857-42.171428 40.8v1.371428zM608.8 573.485714c0.342857 22.971429 19.2 41.257143 42.171429 40.914286 22.4-0.342857 40.457143-18.4 40.914285-40.8v-0.114286c0.342857-22.971429-17.942857-41.828571-40.8-42.171428-22.971429-0.342857-41.828571 17.942857-42.171428 40.8-0.114286 0.457143-0.114286 0.914286-0.114286 1.371428z" fill="#25467A" /><path d="M318.285714 642.628571h-55.314285c-15.314286 0-27.657143 12.342857-27.657143 27.657143 0 15.314286 12.342857 27.657143 27.657143 27.657143h55.428571c15.314286 0 27.657143-12.342857 27.657143-27.657143 0-15.314286-12.342857-27.657143-27.657143-27.657143h-0.114286z m442.742857 0h-55.314285c-15.314286 0-27.657143 12.457143-27.657143 27.657143 0 15.314286 12.342857 27.657143 27.657143 27.657143h55.314285c15.314286 0 27.657143-12.342857 27.657143-27.657143 0.114286-15.2-12.342857-27.542857-27.657143-27.657143z" fill="#FFCD40" /></svg>