<?xml version="1.0" standalone="no"?><!DOCTYPE svg PUBLIC "-//W3C//DTD SVG 1.1//EN" "http://www.w3.org/Graphics/SVG/1.1/DTD/svg11.dtd"><svg class="icon" width="200px" height="200.00px" viewBox="0 0 1024 1024" version="1.1" xmlns="http://www.w3.org/2000/svg"><path d="M512 968.914286c-88.457143 0-175.771429-18.971429-252.228571-54.857143-36.342857-17.028571-66.285714-45.714286-84.571429-80.571429l-42.285714-81.6C97.028571 720 67.657143 683.885714 45.714286 644.342857 15.314286 589.828571 0 531.428571 0 470.857143c0-60.685714 15.314286-118.971429 45.714286-173.371429 27.657143-49.6 66.4-93.485714 115.314285-130.628571C255.885714 94.857143 380.571429 55.2 512 55.2c131.542857 0 256.114286 39.657143 350.971429 111.657143 48.914286 37.142857 87.657143 81.028571 115.314285 130.628571 30.285714 54.4 45.714286 112.685714 45.714286 173.371429 0 60.685714-15.314286 118.971429-45.714286 173.371428-22.057143 39.542857-51.314286 75.657143-87.2 107.542858l-42.285714 81.714285c-18.171429 34.857143-48.228571 63.428571-84.457143 80.571429-76.571429 35.771429-163.885714 54.857143-252.342857 54.857143z" fill="#25467A" /><path d="M880.114286 668.457143l-73.6 142.171428c-0.114286 0.114286-0.114286 0.342857-0.228572 0.457143-13.6 26.171429-35.657143 46.857143-62.4 59.314286-70.057143 32.8-149.371429 50.4-231.885714 50.4-82.514286 0-161.828571-17.485714-231.885714-50.4-26.628571-12.571429-48.8-33.257143-62.4-59.314286-0.114286-0.114286-0.114286-0.342857-0.228572-0.457143l-73.6-142.171428h736.228572z" fill="#A6A6A6" /><path d="M830.857143 668.457143L767.085714 806.857143c-0.114286 0.114286-0.114286 0.342857-0.228571 0.457143-11.771429 25.485714-30.971429 45.6-54.057143 57.828571-60.571429 32-129.371429 49.142857-200.8 49.142857-71.428571 0-140.228571-17.028571-200.8-49.028571-23.085714-12.228571-42.171429-32.342857-54.057143-57.828572-0.114286-0.114286-0.114286-0.342857-0.228571-0.457142L193.142857 668.457143h637.714286z" fill="#CFCFCF" /><path d="M512 838.514286c-121.028571 0-235.428571-36.228571-321.942857-101.942857-43.542857-33.142857-78.057143-72-102.4-115.771429C61.371429 573.6 48 523.2 48 470.857143s13.371429-102.857143 39.657143-150.057143c24.342857-43.771429 58.857143-82.628571 102.4-115.771429C276.571429 139.314286 390.971429 103.085714 512 103.085714c121.028571 0 235.428571 36.228571 321.942857 101.942857 43.542857 33.142857 78.057143 72 102.4 115.771429C962.628571 368 976 418.4 976 470.857143c0 52.342857-13.371429 102.857143-39.657143 150.057143-24.342857 43.771429-58.857143 82.628571-102.4 115.771428C747.428571 802.285714 633.028571 838.514286 512 838.514286z" fill="#FAFAFA" /><path d="M512 800.457143c-116 0-225.6-34.285714-308.571429-96.571429-41.828571-31.428571-74.857143-68.342857-98.171428-109.828571-25.142857-44.685714-37.942857-92.571429-37.942857-142.285714S80 354.285714 105.257143 309.485714c23.314286-41.485714 56.342857-78.4 98.171428-109.828571 82.971429-62.285714 192.571429-96.571429 308.571429-96.571429s225.6 34.285714 308.571429 96.571429c41.828571 31.428571 74.857143 68.342857 98.171428 109.828571 25.142857 44.685714 37.942857 92.571429 37.942857 142.285715 0 49.6-12.8 97.485714-37.942857 142.285714-23.314286 41.485714-56.342857 78.4-98.171428 109.828571-82.971429 62.171429-192.571429 96.571429-308.571429 96.571429z" fill="#FFB74D" /><path d="M112 440.914286a400 303.085714 0 1 0 800 0 400 303.085714 0 1 0-800 0Z" fill="#FF9E00" /><path d="M136.342857 430.4a375.657143 280 0 1 0 751.314286 0 375.657143 280 0 1 0-751.314286 0Z" fill="#FFCD40" /><path d="M683.085714 554.628571c-44 28-72.8 24.457143-74.171428 37.828572-1.6 16 37.942857 38.971429 76.342857 39.314286 4.685714 0 65.142857-0.228571 80.457143-41.828572 10.971429-29.714286-5.485714-69.142857-25.485715-73.485714-14.857143-3.2-21.485714 15.428571-57.142857 38.171428zM281.714286 606.742857c9.828571 13.714286 19.885714 28 38.4 31.542857 22.628571 4.342857 50.971429-7.657143 53.714285-24.228571 2.285714-14.285714-15.085714-27.314286-29.6-38.057143-25.828571-19.428571-69.371429-39.2-80.8-26.171429-10.4 11.428571 9.485714 44.457143 18.285715 56.914286z" fill="#572F05" /><path d="M512 473.485714c-35.314286 0-64-28.685714-64-64 0-7.085714 5.714286-12.8 12.8-12.8s12.8 5.714286 12.8 12.8c0 21.257143 17.142857 38.4 38.4 38.4s38.4-17.142857 38.4-38.4c0-7.085714 5.714286-12.8 12.8-12.8s12.8 5.714286 12.8 12.8c0 35.314286-28.685714 64-64 64zM345.6 307.085714c0 21.257143 17.142857 38.4 38.4 38.4s38.4-17.142857 38.4-38.4-17.142857-38.4-38.4-38.4c-21.142857 0-38.4 17.142857-38.4 38.4zM601.6 307.085714c0 21.257143 17.142857 38.4 38.4 38.4s38.4-17.142857 38.4-38.4-17.142857-38.4-38.4-38.4c-21.142857 0-38.4 17.142857-38.4 38.4z" fill="#25467A" /><path d="M332.8 371.085714h-51.2c-14.171429 0-25.6 11.428571-25.6 25.6s11.428571 25.6 25.6 25.6h51.2c14.171429 0 25.6-11.428571 25.6-25.6s-11.428571-25.6-25.6-25.6z m409.6 0h-51.2c-14.171429 0-25.6 11.428571-25.6 25.6s11.428571 25.6 25.6 25.6h51.2c14.171429 0 25.6-11.428571 25.6-25.6 0-14.171429-11.428571-25.6-25.6-25.6z" fill="#FDEFBA" /></svg>