<?xml version="1.0" standalone="no"?><!DOCTYPE svg PUBLIC "-//W3C//DTD SVG 1.1//EN" "http://www.w3.org/Graphics/SVG/1.1/DTD/svg11.dtd"><svg class="icon" width="200px" height="200.00px" viewBox="0 0 1024 1024" version="1.1" xmlns="http://www.w3.org/2000/svg"><path d="M137.340772 1023.77148c-69.013167 0-125.11493-56.101763-125.11493-125.00067v-79.410846c0-5.71301 0.571301-11.426021 1.713904-17.024771-1.485383-7.541174-1.713903-14.396786-1.713904-19.767016 0-12.340103 3.199286-24.337425 9.140817-34.735104 2.742245-9.255077 6.855613-18.167373 12.111582-26.508369-2.399464-8.683776-3.656327-17.710333-3.656326-26.965409v-68.556126c0-16.22495 3.999107-31.764338 11.08324-45.475564-7.198393-14.168266-11.08324-29.936175-11.08324-45.932604v-73.240794c-11.426021-13.025664-17.596072-29.364874-17.596073-46.732426 0-11.654541 2.970765-22.737782 7.998215-32.4499-2.170944-8.340995-3.656327-16.910511-4.341888-25.594287-1.256862-5.48449-1.828163-10.96898-1.828163-16.56773v-71.526891c0-30.621736 14.968087-64.328498 43.190359-97.463959 25.137246-29.136353 60.10087-57.472886 101.234546-81.810311 45.475563-26.851149 97.006918-48.217809 152.994421-63.300156C374.659228 8.683776 442.187012 0 512 0s137.340772 8.683776 200.526668 25.708547c55.987503 15.082348 107.518857 36.449007 152.994421 63.300156 41.133676 24.223164 76.0973 52.673957 101.120286 81.924571 28.222272 33.135461 43.190359 66.842223 43.190359 97.463959v71.526891c0 5.59875-0.571301 11.08324-1.828163 16.56773-0.685561 8.683776-2.170944 17.139031-4.341888 25.480027 5.25597 9.940638 7.998215 21.138139 7.998214 32.79268 0 8.112475 0 32.56416-17.596072 51.531355v68.213345c0 15.996429-3.884847 31.764338-11.08324 45.932605 7.084133 13.711225 11.08324 29.250614 11.08324 45.475563v68.556126c0 9.255077-1.256862 18.281634-3.656327 26.96541 5.48449 8.569516 9.597858 17.710333 12.340103 27.30819 5.71301 10.283419 8.912296 21.93796 8.912296 33.821022 0 6.170051-0.799821 12.111582-2.285204 17.938853 1.485383 6.170051 2.285204 12.568623 2.285204 19.081455v79.410846c0 69.013167-56.101763 125.000669-125.114929 125.000669H137.340772v-0.22852z" fill="#25467A" /><path d="M895.114483 581.812988H128.885517c-25.137246 0-45.475563-20.338317-45.475564-45.475563v-66.156662c0-25.137246 20.338317-45.475563 45.475564-45.475563h766.343227c25.137246 0 45.475563 20.338317 45.475563 45.475563v66.156662c-0.11426 25.137246-20.452578 45.475563-45.589824 45.475563z" fill="#EE6F0B" /><path d="M894.657443 740.291899H129.342557c-25.365767 0-45.932604-20.566838-45.932604-45.932604v-68.556126c0-25.365767 20.566838-45.932604 45.932604-45.932604h765.314886c25.365767 0 45.932604 20.566838 45.932604 45.932604v68.556126c0 25.365767-20.566838 45.932604-45.932604 45.932604z" fill="#EE6F0B" /><path d="M874.890426 716.068735c-19.881277 0-38.04865 5.71301-51.874135 15.082347-4.798929 3.313546-12.454363 3.313546-17.253292 0-13.825485-9.369337-31.992859-15.082348-51.874135-15.082347s-38.04865 5.71301-51.874135 15.082347c-4.798929 3.313546-12.454363 3.313546-17.253292 0-13.825485-9.369337-31.992859-15.082348-51.874135-15.082347s-38.04865 5.71301-51.874135 15.082347c-4.798929 3.313546-12.454363 3.313546-17.253292 0-13.825485-9.369337-31.992859-15.082348-51.874135-15.082347s-38.04865 5.71301-51.874135 15.082347c-4.798929 3.313546-12.454363 3.313546-17.253292 0-13.825485-9.369337-31.992859-15.082348-51.874135-15.082347s-38.04865 5.71301-51.874136 15.082347c-4.798929 3.313546-12.454363 3.313546-17.253291 0-13.825485-9.369337-31.992859-15.082348-51.874136-15.082347s-38.04865 5.71301-51.874135 15.082347c-4.798929 3.313546-12.454363 3.313546-17.253291 0-13.825485-9.369337-31.992859-15.082348-51.874136-15.082347-43.30462 0-78.382504 26.96541-78.382504 60.21513s35.077884 60.215131 78.382504 60.215131c19.881277 0 38.04865-5.71301 51.874136-15.082348 4.798929-3.313546 12.454363-3.313546 17.253291 0 13.825485 9.369337 31.992859 15.082348 51.874135 15.082348s38.04865-5.71301 51.874136-15.082348c4.798929-3.313546 12.454363-3.313546 17.253291 0 13.825485 9.369337 31.992859 15.082348 51.874136 15.082348s38.04865-5.71301 51.874135-15.082348c4.798929-3.313546 12.454363-3.313546 17.253292 0 13.825485 9.369337 31.992859 15.082348 51.874135 15.082348s38.04865-5.71301 51.874135-15.082348c4.798929-3.313546 12.454363-3.313546 17.253292 0 13.825485 9.369337 31.992859 15.082348 51.874135 15.082348s38.04865-5.71301 51.874135-15.082348c4.798929-3.313546 12.454363-3.313546 17.253292 0 13.825485 9.369337 31.992859 15.082348 51.874135 15.082348s38.04865-5.71301 51.874135-15.082348c4.798929-3.313546 12.454363-3.313546 17.253292 0 13.825485 9.369337 31.992859 15.082348 51.874135 15.082348 43.30462 0 78.382504-26.96541 78.382504-60.215131s-35.192145-60.215131-78.382504-60.21513z" fill="#7CB342" /><path d="M886.659228 970.183441H137.340772c-39.534033 0-71.526891-31.992859-71.526891-71.526891V819.245704c0-16.11069 13.025664-29.022093 29.022093-29.022093h834.099531c16.11069 0 29.022093 13.025664 29.022094 29.022093v79.410846c0.22852 39.534033-31.764338 71.526891-71.298371 71.526891z" fill="#D9792B" /><path d="M958.186119 801.992412c0 4.684669-1.942424 8.912296-4.913189 11.997322-3.085026 3.085026-7.312653 4.913189-11.997322 4.913189 0 0-386.54229-16.681991-525.025664-5.141709S273.081901 887.80183 187.386744 885.402366c-54.045079-1.599643-68.670386-38.619951-87.2948-57.130105-18.510154-18.510154-34.278063 4.684669-34.278063-26.165588 0-4.684669 1.942424-8.912296 4.913189-11.997322 3.085026-3.085026 7.312653-4.913189 11.997322-4.913189h857.979915c9.369337-0.11426 17.481812 7.426914 17.481812 16.79625zM65.813881 416.935505c0 5.827271 1.599643 11.426021 4.913189 15.082348 6.170051 6.627092 15.653649 6.170051 27.19393 6.170051s338.210221-14.511047 476.579335 0C712.983709 452.698951 750.803838 524.225842 836.498996 521.140817c54.045079-1.942424 68.670386-48.217809 87.2948-71.412631s26.508369-14.054006 31.535818-25.708548c4.456148-10.283419 0.914082-18.167373-2.170944-22.05222s-7.312653-6.170051-11.997322-6.170051H83.295693c-9.369337 0-17.481812 9.483597-17.481812 21.138138z" fill="#FFBC00" /><path d="M876.261549 261.3131c-20.109797 0-38.39143 7.998215-52.331176 21.252399-4.684669 4.456148-11.997322 4.456148-16.681991 0-13.939746-13.254184-32.221379-21.252399-52.331176-21.252399s-38.39143 7.998215-52.331176 21.252399c-4.684669 4.456148-11.997322 4.456148-16.681991 0-13.939746-13.254184-32.221379-21.252399-52.331176-21.252399s-38.39143 7.998215-52.331176 21.252399c-4.684669 4.456148-11.997322 4.456148-16.681991 0-13.939746-13.254184-32.221379-21.252399-52.331176-21.252399s-38.39143 7.998215-52.331176 21.252399c-4.684669 4.456148-11.997322 4.456148-16.68199 0-13.939746-13.254184-32.221379-21.252399-52.331176-21.252399-20.109797 0-38.39143 7.998215-52.331176 21.252399-4.684669 4.456148-11.997322 4.456148-16.681991 0-13.939746-13.254184-32.221379-21.252399-52.331176-21.252399s-38.39143 7.998215-52.331176 21.252399c-4.684669 4.456148-11.997322 4.456148-16.681991 0-13.939746-13.254184-32.221379-21.252399-52.331176-21.252399-43.41888 0-78.725285 37.477349-78.725284 83.752734s35.192145 83.752734 78.725284 83.752733c20.109797 0 38.39143-7.998215 52.331176-21.252399 4.684669-4.456148 11.997322-4.456148 16.681991 0 13.939746 13.254184 32.221379 21.252399 52.331176 21.252399s38.39143-7.998215 52.331176-21.252399c4.684669-4.456148 11.997322-4.456148 16.681991 0 13.939746 13.254184 32.221379 21.252399 52.331176 21.252399 20.109797 0 38.39143-7.998215 52.331176-21.252399 4.684669-4.456148 11.997322-4.456148 16.68199 0 13.939746 13.254184 32.221379 21.252399 52.331176 21.252399s38.39143-7.998215 52.331176-21.252399c4.684669-4.456148 11.997322-4.456148 16.681991 0 13.939746 13.254184 32.221379 21.252399 52.331176 21.252399s38.39143-7.998215 52.331176-21.252399c4.684669-4.456148 11.997322-4.456148 16.681991 0 13.939746 13.254184 32.221379 21.252399 52.331176 21.252399s38.39143-7.998215 52.331176-21.252399c4.684669-4.456148 11.997322-4.456148 16.681991 0 13.939746 13.254184 32.221379 21.252399 52.331176 21.252399 43.41888 0 78.725285-37.477349 78.725284-83.752733s-35.306405-83.752734-78.725284-83.752734z" fill="#7CB342" /><path d="M512 53.588038c-277.65231 0-444.357956 145.910288-444.357956 214.809195v71.526891c0 19.309975 9.597858 34.849364 54.61638 34.849364s158.13613-45.589824 389.627316-45.589824S857.522874 374.773488 901.627315 374.773488s54.61638-15.653649 54.616381-34.849364v-71.526891c0.11426-68.898906-166.591386-214.809194-444.243696-214.809195z" fill="#D9792B" /><path d="M441.27293 145.224727c0 6.627092-9.712118 11.997322-21.595179 11.997322s-21.59518-5.37023-21.59518-11.997322 9.712118-11.997322 21.59518-11.997322 21.59518 5.48449 21.595179 11.997322z m163.049319-11.883062c-11.883062 0-21.59518 5.37023-21.595179 11.997322s9.712118 11.997322 21.595179 11.997322 21.59518-5.37023 21.59518-11.997322-9.712118-11.997322-21.59518-11.997322z m-152.423119-41.133676c-10.283419-7.769694-20.795358-9.483597-23.423343-3.884847-2.627985 5.59875 3.542067 16.45347 13.825485 24.108904 10.283419 7.769694 20.795358 9.483597 23.423343 3.884848 2.627985-5.48449-3.542067-16.33921-13.825485-24.108905z m143.625083-3.770587c-2.627985-5.59875-13.139924-3.884847-23.423343 3.884847s-16.45347 18.510154-13.825485 24.108905c2.627985 5.59875 13.139924 3.884847 23.423343-3.884847s16.56773-18.624414 13.825485-24.108905z m78.839545 26.279849c-10.283419-7.769694-20.795358-9.483597-23.423343-3.884848-2.627985 5.59875 3.542067 16.45347 13.825485 24.108905 10.283419 7.769694 20.795358 9.483597 23.423343 3.884847s-3.427806-16.33921-13.825485-24.108904z m-324.727516 0c-10.283419 7.769694-16.45347 18.510154-13.825485 24.108904 2.627985 5.59875 13.139924 3.884847 23.423343-3.884847s16.45347-18.510154 13.825485-24.108905-13.139924-3.884847-23.423343 3.884848zM512 71.184111c-11.883062 0-21.59518 5.37023-21.59518 11.997322s9.712118 11.997322 21.59518 11.997322 21.59518-5.37023 21.59518-11.997322-9.712118-11.997322-21.59518-11.997322z m0 83.409953c-11.883062 0-21.59518 5.37023-21.59518 11.997322s9.712118 11.997322 21.59518 11.997322 21.59518-5.37023 21.59518-11.997322-9.712118-11.997322-21.59518-11.997322z m209.210444 2.056684c-11.883062 0-21.59518 5.37023-21.59518 11.997322s9.712118 11.997322 21.59518 11.997322 21.59518-5.37023 21.59518-11.997322-9.712118-11.997322-21.59518-11.997322z m-418.420888 0c-11.883062 0-21.59518 5.37023-21.59518 11.997322s9.712118 11.997322 21.59518 11.997322c11.883062 0 21.59518-5.37023 21.59518-11.997322s-9.712118-11.997322-21.59518-11.997322z" fill="#FBC02D" /><path d="M512 693.902254c-35.306405 0-63.985717-28.679313-63.985717-63.985718 0-7.084133 5.71301-12.797143 12.797143-12.797143s12.797143 5.71301 12.797144 12.797143c0 21.252399 17.253292 38.39143 38.39143 38.391431s38.39143-17.139031 38.39143-38.391431c0-7.084133 5.71301-12.797143 12.797144-12.797143s12.797143 5.71301 12.797143 12.797143c0 35.420665-28.679313 63.985717-63.985717 63.985718z" fill="#25467A" /><path d="M384.028565 527.539389m-38.39143 0a38.39143 38.39143 0 1 0 76.782861 0 38.39143 38.39143 0 1 0-76.782861 0Z" fill="#25467A" /><path d="M639.971435 527.539389m-38.391431 0a38.39143 38.39143 0 1 0 76.782861 0 38.39143 38.39143 0 1 0-76.782861 0Z" fill="#25467A" /><path d="M332.839991 591.525106h-51.188574c-14.168266 0-25.594287 11.426021-25.594287 25.594287s11.426021 25.594287 25.594287 25.594287h51.188574c14.168266 0 25.594287-11.426021 25.594287-25.594287 0-14.054006-11.426021-25.480027-25.594287-25.594287zM742.348583 591.525106h-51.188574c-14.168266 0-25.594287 11.426021-25.594287 25.594287s11.426021 25.594287 25.594287 25.594287h51.188574c14.168266 0 25.594287-11.426021 25.594287-25.594287 0-14.054006-11.426021-25.480027-25.594287-25.594287z" fill="#FFA726" /></svg>