<?xml version="1.0" standalone="no"?><!DOCTYPE svg PUBLIC "-//W3C//DTD SVG 1.1//EN" "http://www.w3.org/Graphics/SVG/1.1/DTD/svg11.dtd"><svg class="icon" width="200px" height="200.00px" viewBox="0 0 1024 1024" version="1.1" xmlns="http://www.w3.org/2000/svg"><path d="M512 1024c-106.514286 0-184.457143-6.742857-231.657143-20.114286-19.885714-5.6-34.971429-12.571429-46.057143-21.142857-16.571429-12.8-21.942857-27.314286-23.657143-37.257143l-0.114285-0.8-14.057143-104.457143-7.771429-0.457142-63.657143-461.371429 9.371429 0.342857-6.057143-45.257143H76.457143L100.342857 193.142857c2.857143-16.8 12.342857-30.971429 25.485714-40l13.714286-77.942857c5.028571-28.457143 29.828571-49.028571 59.085714-49.028571h437.6C645.6 10.285714 662.285714 0 681.371429 0h142.857142C851.428571 0 873.942857 21.028571 876.571429 48.914286l0.571428 6.4c3.542857 6.057143 6.057143 12.685714 7.314286 19.771428l13.714286 77.942857c13.142857 9.028571 22.628571 23.2 25.485714 40l23.885714 140.342858h-52l-6.057143 45.257142 9.371429-0.342857-63.657143 461.371429-7.771429 0.457143-14.057142 104.457143-0.114286 0.8c-1.6 9.942857-7.085714 24.457143-23.657143 37.257142-11.085714 8.571429-26.171429 15.542857-46.057143 21.142858C696.457143 1017.257143 618.514286 1024 512 1024z" fill="#25467A" /><path d="M512 231.314286H165.828571L260.571429 936.914286s6.057143 36.342857 251.428571 36.342857 251.428571-36.342857 251.428571-36.342857l94.742858-705.485715H512z" fill="#BBDEFB" /><path d="M512 435.771429c-165.371429 0-328.571429-5.028571-328.571429-5.028572l49.828572 361.028572c76.685714 4.571429 169.6 7.885714 278.742857 7.885714s202.057143-3.314286 278.742857-7.885714l49.828572-361.028572s-163.2 5.028571-328.571429 5.028572z" fill="#1E88E5" /><path d="M826.057143 54.057143c-0.114286-1.828571-1.142857-3.2-2.171429-3.2H681.142857c-1.028571 0-1.942857 1.371429-2.171428 3.2l-4.8 52.457143H830.857143l-4.8-52.457143z" fill="#EEEEEE" /><path d="M834.514286 84.228571c-0.8-4.228571-4.8-7.428571-9.485715-7.428571H198.971429c-4.685714 0-8.8 3.085714-9.485715 7.428571l-21.257143 120.8h687.542858L834.514286 84.228571z" fill="#F5F5F5" /><path d="M873.6 201.828571c-0.8-4.914286-4.914286-8.571429-9.6-8.571428H160c-4.685714 0-8.8 3.657143-9.6 8.571428l-13.942857 81.485715h751.085714l-13.942857-81.485715z" fill="#FFFFFF" /><path d="M512 720.8c-35.314286 0-64-28.685714-64-64 0-7.085714 5.714286-12.8 12.8-12.8s12.8 5.714286 12.8 12.8c0 21.257143 17.257143 38.4 38.4 38.4s38.4-17.142857 38.4-38.4c0-7.085714 5.714286-12.8 12.8-12.8s12.8 5.714286 12.8 12.8c0 35.428571-28.685714 64-64 64z" fill="#25467A" /><path d="M384 554.4m-38.4 0a38.4 38.4 0 1 0 76.8 0 38.4 38.4 0 1 0-76.8 0Z" fill="#25467A" /><path d="M640 554.4m-38.4 0a38.4 38.4 0 1 0 76.8 0 38.4 38.4 0 1 0-76.8 0Z" fill="#25467A" /><path d="M332.8 618.4h-51.2c-14.171429 0-25.6 11.428571-25.6 25.6s11.428571 25.6 25.6 25.6h51.2c14.171429 0 25.6-11.428571 25.6-25.6 0-14.057143-11.428571-25.485714-25.6-25.6zM742.4 618.4h-51.2c-14.171429 0-25.6 11.428571-25.6 25.6s11.428571 25.6 25.6 25.6h51.2c14.171429 0 25.6-11.428571 25.6-25.6 0-14.057143-11.428571-25.485714-25.6-25.6z" fill="#BBDEFB" /></svg>