<?xml version="1.0" standalone="no"?><!DOCTYPE svg PUBLIC "-//W3C//DTD SVG 1.1//EN" "http://www.w3.org/Graphics/SVG/1.1/DTD/svg11.dtd"><svg class="icon" width="200px" height="200.00px" viewBox="0 0 1024 1024" version="1.1" xmlns="http://www.w3.org/2000/svg"><path d="M512 1024c-54.057143 0-120.342857-6.285714-177.6-16.8-112.685714-20.8-139.085714-48.685714-147.771429-57.942857-14.971429-15.885714-22.628571-35.771429-21.485714-56l0.114286-1.142857c6.057143-80.685714 8.457143-275.657143 0.342857-340.914286-5.371429-42.628571 5.828571-88 33.142857-134.857143 20.685714-35.428571 45.371429-63.085714 57.257143-76.457143l0.8-0.914285c20.685714-23.085714 49.028571-54.857143 58.628571-85.142858 7.085714-22.4 10.857143-44 14.857143-66.857142 1.257143-7.428571 2.628571-14.971429 4.114286-22.628572-2.857143-7.2-4.342857-14.857143-4.342857-22.857143 0-3.314286 0.228571-7.428571 1.028571-12.228571-2.285714-5.6-3.542857-11.771429-3.542857-18.285714v-3.771429l8.685714-54.171429c2.742857-27.657143 26.514286-49.028571 57.371429-50.514285C408.685714 1.828571 450.857143 0 512 0c61.485714 0 103.542857 1.828571 118.742857 2.628571 30.857143 1.6 54.514286 22.857143 57.257143 50.514286l8.685714 54.171429v3.771428c0 5.942857-1.142857 12.228571-3.542857 18.057143 0.8 4.914286 1.028571 9.142857 1.028572 12.342857 0 7.885714-1.485714 15.657143-4.342858 22.857143 1.485714 7.657143 2.742857 15.2 4.114286 22.628572 4 22.857143 7.771429 44.457143 14.857143 66.857142 9.6 30.285714 37.942857 61.942857 58.628571 85.142858l0.8 0.914285c11.885714 13.257143 36.685714 40.914286 57.257143 76.342857 27.314286 46.857143 38.514286 92.228571 33.142857 134.857143-8.114286 65.142857-5.714286 260.228571 0.342858 340.914286l0.114285 1.142857c1.142857 20.342857-6.514286 40.228571-21.485714 56-15.085714 15.885714-46.742857 39.2-147.657143 57.828572C632.114286 1017.6 565.714286 1024 512 1024z" fill="#25467A" /><path d="M512 976.571429c-97.828571 0-255.771429-22.742857-290.971429-59.885715-6.057143-6.4-9.028571-13.485714-8.571428-20.8v-0.228571c6.171429-82.628571 8.8-280.457143 0-350.285714-4-32 5.142857-67.428571 27.085714-105.028572 18.285714-31.314286 40.8-56.571429 51.657143-68.685714l0.8-0.914286c23.542857-26.4 55.885714-62.514286 68.571429-102.514286 8-25.485714 12.228571-49.6 16.342857-73.028571 2.285714-13.257143 4.685714-26.971429 7.771428-40.685714-4.914286-3.542857-7.428571-7.885714-7.428571-12.914286 0-5.371429 1.6-19.657143 17.028571-34.057143l2.285715-2.171428 2.514285-1.942858c29.257143-23.2 77.485714-28.114286 112.8-28.114285 35.314286 0 83.657143 4.914286 112.914286 28.114285l2.514286 1.942858 2.285714 2.171428c15.314286 14.514286 17.028571 28.685714 17.028571 34.057143 0 5.028571-2.514286 9.371429-7.428571 12.914286v0.114285c3.085714 13.714286 5.485714 27.428571 7.771429 40.685715 4.114286 23.428571 8.342857 47.542857 16.342857 73.028571 12.685714 40 44.914286 76.114286 68.571428 102.514286l0.8 0.914286c10.857143 12.114286 33.485714 37.371429 51.657143 68.685714 21.942857 37.714286 31.085714 73.028571 27.085714 105.028571-8.685714 69.828571-6.171429 267.771429 0 350.285715v0.228571c0.457143 7.314286-2.514286 14.4-8.571428 20.8-20.114286 21.257143-77.371429 35.542857-121.828572 43.771429-54.857143 9.942857-118.057143 16-169.028571 16z" fill="#FEF8E2" /><path d="M800.228571 543.885714c8.571429-68.8-51.542857-137.6-76-164.8-24.342857-27.2-58.171429-64.685714-71.657142-107.542857-12.914286-40.8-16-77.257143-24.342858-114.742857l-1.6-7.2 5.942858-4.457143c2.742857-1.942857 2.742857-3.2 2.742857-3.771428 0-4-1.371429-14.514286-13.485715-25.828572l-1.942857-1.828571-2.171428-1.714286C603.085714 100.457143 572.571429 86.514286 512 86.514286s-91.085714 13.942857-105.828571 25.6l-2.171429 1.714285-1.942857 1.828572c-12.114286 11.428571-13.485714 21.942857-13.485714 25.828571 0 0.571429 0 1.828571 2.742857 3.771429l5.942857 4.457143-1.6 7.2c-8.342857 37.485714-11.428571 73.828571-24.342857 114.742857-13.485714 42.857143-47.314286 80.228571-71.657143 107.542857-24.342857 27.2-84.571429 96-76 164.8 8.571429 68.8 6.4 266.514286 0 352.571429-2.171429 38.742857 176.571429 68.8 288.228571 68.8s290.4-30.057143 288.228572-68.8c-6.285714-86.057143-8.457143-283.885714 0.114285-352.685715z" fill="#FDEFBA" /><path d="M800.228571 896.457143c2.171429 38.742857-176.571429 68.8-288.228571 68.8s-290.4-30.057143-288.228571-68.8c6.4-85.942857 8.571429-283.771429 0-352.571429-8.571429-68.8 51.657143-137.6 76-164.8 24.342857-27.2 58.171429-64.685714 71.657142-107.542857 3.657143-11.657143 6.514286-22.857143 9.028572-33.942857l2.4-11.314286c27.2-3.085714 75.771429-5.257143 131.2-5.257143 52.8 0 99.314286 1.942857 127.2 4.8 0.8 4 1.6 8.114286 2.514286 12.228572 2.4 10.857143 5.257143 21.942857 8.914285 33.485714 13.485714 42.857143 47.314286 80.228571 71.657143 107.542857 24.342857 27.2 84.571429 96 76 164.8-8.685714 68.8-6.514286 266.628571-0.114286 352.571429z" fill="#F6BE1A" /><path d="M800.228571 896.457143c1.142857 20.342857-47.771429 38.285714-110.742857 50.742857-3.771429-90.514286-5.028571-335.885714 0.228572-403.314286 5.257143-68.8-31.771429-137.6-46.857143-164.8-14.971429-27.2-35.885714-64.685714-44.228572-107.542857-2.285714-12-4.114286-23.542857-5.714285-34.971428 21.371429-1.142857 38.514286-2.857143 49.371428-4.685715 2.628571 12.8 5.942857 26.057143 10.171429 39.657143 13.485714 42.857143 47.314286 80.228571 71.657143 107.542857 24.342857 27.2 84.571429 96 76 164.8-8.457143 68.8-6.285714 266.628571 0.114285 352.571429z" fill="#F6B700" /><path d="M430.971429 236.685714c-1.485714 11.314286-3.314286 22.971429-5.714286 34.971429-8.342857 42.857143-29.142857 80.228571-44.228572 107.542857-14.971429 27.2-52.114286 96-46.857142 164.8 5.257143 67.428571 4 312.8 0.228571 403.314286-62.857143-12.457143-111.885714-30.4-110.742857-50.742857 6.4-85.942857 8.571429-283.771429 0-352.571429-8.571429-68.8 51.657143-137.6 76-164.8 24.342857-27.2 58.171429-64.685714 71.657143-107.542857 4.342857-13.6 7.542857-26.742857 10.171428-39.657143 10.971429 1.828571 28.114286 3.542857 49.485715 4.685714z" fill="#FAD53E" /><path d="M786.971429 897.6c0 19.314286-123.085714 55.771429-274.971429 55.771429s-274.971429-36.457143-274.971429-55.771429 59.657143 0.342857 274.971429 0.342857 274.971429-19.771429 274.971429-0.342857z" fill="#F5A816" /><path d="M665.028571 339.2c-22.4-8.571429-86.742857 1.828571-153.028571 1.828571s-130.514286-10.4-153.028571-1.828571c-22.4 8.571429-85.257143 73.714286-59.771429 58.742857 25.485714-14.971429 100.571429-38.628571 212.8-38.628571s187.314286 23.657143 212.8 38.628571c25.485714 15.085714-37.371429-50.057143-59.771429-58.742857z" fill="#FDEFBA" /><path d="M619.428571 147.542857c0 2.857143-48.114286 5.6-107.428571 5.6s-107.428571-2.857143-107.428571-5.6c0-2.857143 48.114286-4.457143 107.428571-4.457143s107.428571 1.6 107.428571 4.457143z" fill="#FAD53E" /><path d="M628.342857 50.057143c-19.314286-1.028571-60.457143-2.628571-116.342857-2.628572s-96.914286 1.6-116.342857 2.628572c-7.085714 0.342857-12.571429 4.114286-12.571429 8.571428l-8.342857 52.457143c0 3.885714 83.314286 5.714286 137.257143 5.714286s137.257143-1.942857 137.257143-5.714286l-8.342857-52.457143c0-4.571429-5.485714-8.228571-12.571429-8.571428z" fill="#EEEEEE" /><path d="M288.457143 428.685714c9.942857-6.628571 26.628571-11.085714 33.028571-4.342857 8.114286 8.685714 0.114286 36.571429-18.628571 44.342857-10.742857 4.571429-26.628571 3.085714-31.542857-5.714285-5.828571-10.171429 5.714286-26.514286 17.142857-34.285715z" fill="#FFFFFF" /><path d="M490.971429 110.742857c0 2.171429-0.114286 4.228571-0.457143 6.057143-10.971429-0.114286-22.4-0.228571-33.6-0.457143-0.228571-1.828571-0.342857-3.771429-0.342857-5.6 0-15.542857 3.428571-28.228571 17.142857-28.228571 13.942857 0 17.257143 12.571429 17.257143 28.228571zM452.8 110.742857c0 1.942857-0.114286 3.771429-0.342857 5.485714-11.885714-0.228571-23.428571-0.571429-33.714286-0.914285-0.114286-1.485714-0.228571-3.085714-0.228571-4.571429 0-15.542857 3.428571-28.228571 17.142857-28.228571s17.142857 12.571429 17.142857 28.228571zM414.628571 110.742857c0 1.485714-0.114286 2.971429-0.228571 4.457143-14.971429-0.571429-27.2-1.371429-34.057143-2.4v-2.057143c0-15.542857 3.428571-28.228571 17.142857-28.228571s17.142857 12.571429 17.142857 28.228571zM567.314286 110.742857c0 1.942857-0.114286 3.885714-0.342857 5.6-11.2 0.228571-22.628571 0.342857-33.6 0.457143-0.228571-1.942857-0.457143-4-0.457143-6.057143 0-15.542857 3.428571-28.228571 17.142857-28.228571 13.942857 0 17.257143 12.571429 17.257143 28.228571zM529.142857 110.742857c0 2.171429-0.114286 4.228571-0.457143 6.057143h-33.371428c-0.228571-1.942857-0.457143-4.114286-0.457143-6.057143 0-15.542857 3.428571-28.228571 17.142857-28.228571s17.142857 12.571429 17.142857 28.228571zM643.657143 110.742857v2.057143c-6.742857 0.914286-18.971429 1.714286-34.057143 2.4-0.114286-1.485714-0.228571-2.971429-0.228571-4.457143 0-15.542857 3.428571-28.228571 17.142857-28.228571 13.828571 0 17.142857 12.571429 17.142857 28.228571zM605.485714 110.742857c0 1.6-0.114286 3.085714-0.228571 4.571429-10.4 0.342857-21.942857 0.685714-33.714286 0.914285-0.228571-1.828571-0.342857-3.657143-0.342857-5.485714 0-15.542857 3.428571-28.228571 17.142857-28.228571 13.828571 0 17.142857 12.571429 17.142857 28.228571z" fill="#E0E0E0" /><path d="M382.857143 227.2a129.142857 8.342857 0 1 0 258.285714 0 129.142857 8.342857 0 1 0-258.285714 0Z" fill="#F5A816" /><path d="M382.742857 226.4c-0.8 3.771429-1.485714 7.542857-2.4 11.314286l2.4-11.314286zM643.771429 238.171429c-0.914286-4.114286-1.714286-8.228571-2.514286-12.228572l2.514286 12.228572z" fill="#F6BE1A" /><path d="M635.542857 54.971429c0 2.742857-55.314286 5.485714-123.542857 5.485714s-123.542857-2.742857-123.542857-5.485714 55.314286-4.228571 123.542857-4.228572 123.542857 1.485714 123.542857 4.228572z" fill="#FB8C00" /><path d="M512 767.085714c-35.314286 0-64-28.685714-64-64 0-7.085714 5.714286-12.8 12.8-12.8s12.8 5.714286 12.8 12.8c0 21.257143 17.142857 38.4 38.4 38.4s38.4-17.142857 38.4-38.4c0-7.085714 5.714286-12.8 12.8-12.8s12.8 5.714286 12.8 12.8c0 35.314286-28.685714 64-64 64zM345.6 600.685714c0 21.257143 17.142857 38.4 38.4 38.4s38.4-17.142857 38.4-38.4-17.142857-38.4-38.4-38.4c-21.142857 0-38.4 17.142857-38.4 38.4zM601.6 600.685714c0 21.257143 17.142857 38.4 38.4 38.4s38.4-17.142857 38.4-38.4-17.142857-38.4-38.4-38.4c-21.142857 0-38.4 17.142857-38.4 38.4z" fill="#25467A" /><path d="M332.8 664.685714h-51.2c-14.171429 0-25.6 11.428571-25.6 25.6s11.428571 25.6 25.6 25.6h51.2c14.171429 0 25.6-11.428571 25.6-25.6s-11.428571-25.6-25.6-25.6z m409.6 0h-51.2c-14.171429 0-25.6 11.428571-25.6 25.6s11.428571 25.6 25.6 25.6h51.2c14.171429 0 25.6-11.428571 25.6-25.6s-11.428571-25.6-25.6-25.6z" fill="#FDEFBA" /><path d="M607.542857 258.857143m-18.857143 0a18.857143 18.857143 0 1 0 37.714286 0 18.857143 18.857143 0 1 0-37.714286 0Z" fill="#FAD53E" /><path d="M564 279.2m-18.857143 0a18.857143 18.857143 0 1 0 37.714286 0 18.857143 18.857143 0 1 0-37.714286 0Z" fill="#FAD53E" /><path d="M467.885714 264.8m-18.857143 0a18.857143 18.857143 0 1 0 37.714286 0 18.857143 18.857143 0 1 0-37.714286 0Z" fill="#FAD53E" /></svg>