<?xml version="1.0" standalone="no"?><!DOCTYPE svg PUBLIC "-//W3C//DTD SVG 1.1//EN" "http://www.w3.org/Graphics/SVG/1.1/DTD/svg11.dtd"><svg class="icon" width="200px" height="200.00px" viewBox="0 0 1024 1024" version="1.1" xmlns="http://www.w3.org/2000/svg"><path d="M512 1024c-106.623857 0-184.708138-6.73534-231.969677-20.091862-19.863545-5.593757-34.932441-12.557414-46.119955-21.119286-16.552954-12.78573-21.918395-27.283835-23.630769-37.215608l-0.114159-0.799108-89.043478-663.488071c-25.000669-7.534448-43.151839-30.708584-43.151839-58.106578v-26.028093c0-33.448384 27.283835-60.732219 60.732218-60.732219h522.274248L676.045485 1.598216l175.232999 19.749387-13.47068 115.18573H885.297659c33.448384 0 60.732219 27.283835 60.732218 60.732219v26.028093c0 27.397993-18.265329 50.572129-43.151839 58.106578l-89.157637 663.488071-0.114158 0.799108c-1.598216 9.931773-7.077815 24.429877-23.630769 37.215608-11.073356 8.561873-26.25641 15.52553-46.119956 21.119287C696.708138 1017.26466 618.623857 1024 512 1024z" fill="#25467A" /><path d="M512 230.028986H164.958751l94.979711 707.32486S265.988852 973.770346 512 973.770346s252.061538-36.416499 252.061538-36.4165L859.041249 230.143144H512v-0.114158z" fill="#FAFAFA" /><path d="M695.22408 925.481382l-72.947157 7.991082L720.338907 57.079153l75.116165 8.447714z" fill="#E6E6E6" /><path d="M813.14961 400.010702l-70.77815 526.726422C731.069788 932.901672 683.237458 950.938685 512 950.938685s-219.069788-18.037012-230.37146-24.087403l-70.77815-526.726421s42.46689-56.165886 138.017391-21.347603c124.432553 45.206689 188.247046 49.430546 275.920625 6.507023 97.719509-47.83233 188.361204 14.84058 188.361204 14.84058v-0.114159z" fill="#FFCCBC" /><path d="M813.14961 400.010702c0 0.114158 0 0.114158 0 0zM759.26689 375.809142l-64.04281 549.67224-72.947157 7.991082L685.520624 368.046377c27.740468-2.625641 53.083612 1.598216 73.746266 7.762765z" fill="#FFAB91" /><path d="M512 650.474025c-35.274916 0-63.928651-28.653735-63.928651-63.928652 0-7.077815 5.707915-12.78573 12.78573-12.78573s12.78573 5.707915 12.78573 12.78573c0 21.233445 17.237904 38.357191 38.357191 38.357191s38.357191-17.123746 38.357191-38.357191c0-7.077815 5.707915-12.78573 12.78573-12.78573s12.78573 5.707915 12.78573 12.78573c0 35.389075-28.653735 63.928651-63.928651 63.928652z" fill="#25467A" /><path d="M384.142698 484.259532m-38.357191 0a38.357191 38.357191 0 1 0 76.714382 0 38.357191 38.357191 0 1 0-76.714382 0Z" fill="#25467A" /><path d="M639.857302 484.259532m-38.357191 0a38.357191 38.357191 0 1 0 76.714382 0 38.357191 38.357191 0 1 0-76.714382 0Z" fill="#25467A" /><path d="M332.999777 548.188183h-51.142921c-14.15563 0-25.57146 11.415831-25.57146 25.57146s11.415831 25.57146 25.57146 25.571461h51.142921c14.15563 0 25.57146-11.415831 25.57146-25.571461 0-14.041472-11.415831-25.457302-25.57146-25.57146zM742.143144 548.188183h-51.142921c-14.15563 0-25.57146 11.415831-25.57146 25.57146s11.415831 25.57146 25.57146 25.571461h51.142921c14.15563 0 25.57146-11.415831 25.57146-25.571461 0-14.041472-11.415831-25.457302-25.57146-25.57146z" fill="#FF8A80" /><path d="M546.085137 911.865725a34.704125 34.704125 0 1 0 26.561387-64.124861 34.704125 34.704125 0 1 0-26.561387 64.124861Z" fill="#997A70" /><path d="M491.565663 908.12932m-34.704125 0a34.704125 34.704125 0 1 0 69.40825 0 34.704125 34.704125 0 1 0-69.40825 0Z" fill="#997A70" /><path d="M471.245485 828.446823m-34.704125 0a34.704125 34.704125 0 1 0 69.40825 0 34.704125 34.704125 0 1 0-69.40825 0Z" fill="#997A70" /><path d="M332.314827 893.97369m-34.704125 0a34.704125 34.704125 0 1 0 69.40825 0 34.704125 34.704125 0 1 0-69.40825 0Z" fill="#997A70" /><path d="M380.032999 826.962765m-34.704125 0a34.704125 34.704125 0 1 0 69.40825 0 34.704125 34.704125 0 1 0-69.40825 0Z" fill="#997A70" /><path d="M627.756522 903.791304m-34.704125 0a34.704125 34.704125 0 1 0 69.40825 0 34.704125 34.704125 0 1 0-69.40825 0Z" fill="#997A70" /><path d="M555.265998 806.756745m-34.704125 0a34.704125 34.704125 0 1 0 69.40825 0 34.704125 34.704125 0 1 0-69.40825 0Z" fill="#997A70" /><path d="M701.616945 893.631215m-34.704124 0a34.704125 34.704125 0 1 0 69.408249 0 34.704125 34.704125 0 1 0-69.408249 0Z" fill="#997A70" /><path d="M640.313935 831.757414m-34.704125 0a34.704125 34.704125 0 1 0 69.40825 0 34.704125 34.704125 0 1 0-69.40825 0Z" fill="#997A70" /><path d="M711.662876 812.46466m-34.704125 0a34.704125 34.704125 0 1 0 69.40825 0 34.704125 34.704125 0 1 0-69.40825 0Z" fill="#997A70" /><path d="M308.341583 798.537347m-34.704125 0a34.704125 34.704125 0 1 0 69.40825 0 34.704125 34.704125 0 1 0-69.40825 0Z" fill="#997A70" /><path d="M414.508807 891.462207m-34.704125 0a34.704125 34.704125 0 1 0 69.40825 0 34.704125 34.704125 0 1 0-69.40825 0Z" fill="#997A70" /><path d="M885.297659 233.682051H138.702341c-5.822074 0-10.502564-4.680491-10.502564-10.502564v-26.028093c0-5.822074 4.680491-10.502564 10.502564-10.502565h746.595318c5.822074 0 10.502564 4.680491 10.502564 10.502565v26.028093c0 5.822074-4.680491 10.502564-10.502564 10.502564z" fill="#FFFFFF" /></svg>