<?xml version="1.0" standalone="no"?><!DOCTYPE svg PUBLIC "-//W3C//DTD SVG 1.1//EN" "http://www.w3.org/Graphics/SVG/1.1/DTD/svg11.dtd"><svg class="icon" width="200px" height="200.00px" viewBox="0 0 1024 1024" version="1.1" xmlns="http://www.w3.org/2000/svg"><path d="M656.571429 1022.971429c-44.342857 0-89.257143-7.885714-141.257143-17.028572-55.428571-9.714286-124.571429-21.942857-215.542857-28.228571-88.914286-6.285714-146.171429-12.342857-185.828572-20-49.942857-9.485714-78.742857-22.971429-96.342857-45.028572C-2.742857 887.2-1.142857 858.857143 1.828571 839.771429c4.342857-27.542857 20.457143-47.885714 32.228572-62.742858 3.428571-4.342857 8.342857-10.514286 10.4-14.057142V258.4c0-50.057143 27.542857-95.542857 71.885714-118.742857l224.114286-117.714286C366.628571 8.228571 396 1.028571 425.485714 1.028571c5.6 0 11.428571 0.228571 17.028572 0.8l487.428571 45.485715c25.828571 2.4 49.6 14.285714 66.971429 33.371428C1014.4 99.771429 1024 124.571429 1024 150.514286v521.828571c0 43.542857-7.314286 63.428571-20 81.828572 6.971429 13.714286 11.885714 30.628571 7.085714 57.257142-2.628571 14.514286-10.971429 35.314286-35.657143 52.342858-12.914286 8.914286-28.8 15.885714-48.685714 21.371428-17.371429 4.8-37.714286 8.457143-60.914286 10.857143 1.485714 9.942857 1.142857 20.8-2.285714 32.457143-13.371429 44.685714-65.028571 66.057143-102.742857 78.171428-34.628571 11.2-67.771429 16.342857-104.228571 16.342858z" fill="#25467A" /><path d="M138.514286 182.057143L362.742857 64.457143c23.2-12.114286 49.257143-17.257143 75.314286-14.857143l487.428571 45.485714c28.571429 2.628571 50.514286 26.628571 50.514286 55.428572v521.828571c0 63.085714-17.371429 47.085714-21.371429 78.514286-3.085714 24.457143 14.971429 20.228571 9.142858 52-6.171429 33.6-76.685714 46.514286-151.2 48.571428s94.857143 57.714286-66.628572 109.6c-121.828571 39.2-204.8-14.628571-442.971428-31.2C64.914286 913.257143 41.485714 896.114286 49.142857 847.2c4.8-30.971429 43.2-52.685714 43.2-81.028571V258.4c0-32.114286 17.828571-61.485714 46.171429-76.342857z" fill="#C6EBFD" /><path d="M653.828571 330.857143v464.685714c0 32.457143 9.485714 66.514286-78.971428 41.828572s-393.714286-54.4-393.714286-54.4c-28.114286-2.742857-74.171429-1.828571-74.171428-30.971429V258.742857c0-28 29.485714-8.571429 71.771428 0.571429 67.314286 14.514286 288.914286 40.342857 397.6 39.314285 50.057143-0.571429 78.857143-20.8 77.485714 32.228572z" fill="#81D4FA" /><path d="M731.885714 261.257143c37.257143-24.8 157.371429-89.028571 180.114286-105.6 22.742857-16.571429 48.342857-29.142857 48.342857-7.2v510.857143c0 23.771429-10.628571 38.742857-29.828571 56.457143-13.028571 12-35.085714 22.628571-20.571429 63.314285 31.085714 86.971429-102.171429 10.057143-153.028571 37.942857C712 841.714286 680 821.828571 680 797.714286l-2.057143-470.057143c0.114286-32.114286 16.685714-41.6 53.942857-66.4z" fill="#29B6F6" /><path d="M270.057143 134.857143c-2.285714-16.8 72.914286-40.457143 99.428571-47.657143 136.571429-37.028571 306.171429 2.628571 306.514286 35.2 0.457143 43.885714-306.514286 42.514286-383.085714 24.8-20.228571-4.571429-22.514286-9.942857-22.857143-12.342857z" fill="#4FC3F7" /><path d="M311.428571 219.771429c0.8-25.6 212.685714 4.685714 426.628572-78.742858 24.571429-9.6 76.342857-31.314286 84.914286-18.628571 8.228571 12.228571-26.171429 52.914286-60 78.742857-48.914286 37.257143-103.085714 48.571429-155.314286 53.828572-141.257143 14.171429-296.914286-13.257143-296.228572-35.2z" fill="#4FC3F7" /><path d="M924.342857 240.685714c-10.628571-0.571429-18.742857 216.457143-21.714286 265.371429-5.828571 94.285714-10.171429 142.057143-31.885714 176.914286S822.857143 753.142857 831.542857 762.628571c8.8 9.6 60.685714-34.171429 93.485714-81.828571 30.971429-44.914286 9.714286-439.657143-0.685714-440.114286z" fill="#01579B" /><path d="M118.971429 277.028571c-2.057143 1.142857-1.6 3.542857 10.4 9.257143 80.228571 38.514286 335.657143 66.971429 472.114285 52.571429 11.2-1.142857 34.857143-3.771429 31.2-7.314286-6.742857-6.742857-100-7.314286-228.457143-20.342857-158.857143-16.114286-273.142857-41.257143-285.257142-34.171429zM92.8 843.2c-7.428571 17.942857 69.942857 9.6 152.228571 17.371429 82.285714 7.771429 153.714286 33.371429 171.2 15.771428 20-20.114286-33.028571-36.342857-127.657142-47.657143-85.828571-10.285714-186.971429-6.857143-195.771429 14.514286zM680.342857 903.314286c11.885714-20.914286 85.714286-10.171429 88.114286 5.485714 2.057143 13.828571-50.057143 46.742857-76.114286 27.2-9.714286-7.314286-17.371429-23.085714-12-32.685714z" fill="#FAFAFA" /><path d="M360 666.285714c-35.2-2.057143-62.171429-32.342857-60.114286-67.657143 0.457143-7.085714 6.4-12.457143 13.485715-12 7.085714 0.457143 12.457143 6.4 12 13.485715-1.257143 21.257143 14.857143 39.314286 36.114285 40.571428s39.314286-14.857143 40.571429-36.114285c0.457143-7.085714 6.4-12.457143 13.485714-12 7.085714 0.457143 12.457143 6.4 12 13.485714-2.057143 35.314286-32.342857 62.285714-67.542857 60.228571zM203.542857 490.514286c-1.257143 21.257143 14.857143 39.314286 36.114286 40.571428s39.314286-14.857143 40.571428-36.114285-14.857143-39.314286-36.114285-40.571429c-21.142857-1.257143-39.314286 14.857143-40.571429 36.114286zM459.085714 505.371429c-1.257143 21.257143 14.857143 39.314286 36.114286 40.571428s39.314286-14.857143 40.571429-36.114286c1.257143-21.257143-14.857143-39.314286-36.114286-40.571428-21.142857-1.142857-39.314286 14.971429-40.571429 36.114286z" fill="#25467A" /><path d="M187.085714 553.6l-51.085714-2.971429c-14.171429-0.8-26.171429 9.942857-27.085714 24.114286-0.8 14.171429 9.942857 26.171429 24.114285 27.085714l51.085715 2.971429c14.171429 0.8 26.171429-9.942857 27.085714-24.114286 0.914286-14.171429-10.057143-26.171429-24.114286-27.085714z m408.8 23.885714l-51.085714-2.971428c-14.171429-0.8-26.171429 9.942857-27.085714 24.114285-0.8 14.171429 9.942857 26.171429 24.114285 27.085715l51.085715 2.971428c14.171429 0.8 26.171429-9.942857 27.085714-24.114285 0.8-14.171429-9.942857-26.285714-24.114286-27.085715z" fill="#FAFAFA" /><path d="M794.628571 259.2c-12.228571-9.714286-42.285714 21.828571-56.571428 42.628571-49.485714 72.228571-27.771429 188.114286-8.685714 191.885715 27.428571 5.371429 92.342857-213.142857 65.257142-234.514286z" fill="#81D4FA" /></svg>