<?xml version="1.0" standalone="no"?><!DOCTYPE svg PUBLIC "-//W3C//DTD SVG 1.1//EN" "http://www.w3.org/Graphics/SVG/1.1/DTD/svg11.dtd"><svg class="icon" width="200px" height="199.80px" viewBox="0 0 1025 1024" version="1.1" xmlns="http://www.w3.org/2000/svg"><path d="M640.466846 1023.428571c-49.257143 0-101.142857-8.685714-154.171429-25.828571-77.485714-25.028571-136.457143-33.371429-183.885714-40-58.285714-8.114286-108.685714-15.2-154.514286-49.828571-45.714286-34.628571-79.2-85.714286-102.171428-156.457143C26.181131 691.428571 12.695417 613.485714 3.095417 506.057143c-7.2-81.371429-1.828571-155.085714 16-218.971429 17.142857-61.257143 45.828571-114.171429 85.257143-157.257143 40.571429-44.228571 92-77.828571 152.8-99.771428C311.666846 10.514286 372.923989 0.571429 438.981131 0.571429c21.828571 0 44.228571 1.142857 66.742858 3.314285 81.142857 7.885714 148.342857 29.142857 205.257142 64.8 51.2 32.114286 96.8 77.371429 143.428572 142.285715C866.295417 227.428571 882.295417 243.428571 899.209703 260.228571c45.142857 44.8 101.142857 100.571429 116.571428 204.342858 12.8 86.171429 10.514286 168-6.857142 243.2-17.371429 75.657143-49.028571 140.457143-93.942858 192.457142-33.828571 39.2-74.285714 69.714286-120 90.628572-47.085714 21.6-99.085714 32.571429-154.514285 32.571428z" fill="#25467A" /><path d="M50.981131 501.714286C18.638274 137.828571 257.723989 28 501.038274 51.657143c152.114286 14.857143 234.857143 76.685714 314.4 187.428571 47.771429 66.4 134.285714 107.428571 152.914286 232.571429 49.6 333.828571-148.571429 583.428571-467.314286 480.342857-174.171429-56.457143-256.8-31.542857-324.342857-82.514286-77.142857-58.4-108.571429-173.6-125.714286-367.771428z" fill="#FFA726" /><path d="M640.466846 952.571429c-41.828571 0-86.4-7.542857-132.342857-22.4-83.314286-26.971429-145.714286-35.657143-195.885715-42.742858-54.4-7.657143-90.4-12.685714-121.714285-36.228571-34.171429-25.828571-58.857143-64.457143-77.485715-121.714286-17.828571-54.742857-30.4-127.771429-39.428571-229.714285C61.266846 359.771429 89.15256 251.428571 156.581131 177.714286c32.685714-35.657143 74.628571-62.971429 124.571429-80.914286 46.857143-16.8 99.885714-25.371429 157.828571-25.371429 19.542857 0 39.657143 1.028571 59.885715 2.971429 70.971429 6.857143 126.4 24.228571 174.514285 54.285714 43.771429 27.428571 81.942857 65.6 123.542858 123.657143 15.314286 21.257143 34.171429 40 52.457142 58.171429 41.485714 41.257143 84.457143 83.885714 96.457143 164.457143 22.628571 152.457143-8.114286 290.628571-84.342857 378.971428-55.657143 64.571429-132.114286 98.628571-221.028571 98.628572z" fill="#FFFFFF" /><path d="M123.323989 417.714286a301.714286 283.771429 0 1 0 603.428571 0 301.714286 283.771429 0 1 0-603.428571 0Z" fill="#FBC02D" /><path d="M726.75256 417.714286c0 156.685714-135.085714 283.771429-301.714286 283.771428-102.514286 0-193.028571-48-247.542857-121.485714 53.142857 44 122.857143 70.742857 199.314286 70.742857 166.628571 0 301.714286-126.971429 301.714286-283.771428 0-60.342857-20-116.228571-54.171429-162.171429 62.857143 52 102.4 128.114286 102.4 212.914286z" fill="#F6B12D" /><path d="M352.35256 186.285714c10.285714 17.828571-30.057143 32.685714-63.771429 52.228572s-66.514286 51.2-76.8 33.371428 17.028571-54.514286 50.742858-73.942857 79.542857-29.485714 89.828571-11.657143z" fill="#FDEFBA" /><path d="M400.923989 547.657143c-38.171429 0-69.142857-30.971429-69.142858-69.257143 0-7.657143 6.171429-13.828571 13.828572-13.828571 7.314286 0 13.485714 5.714286 13.828571 13.028571v0.8c0.342857 22.971429 19.314286 41.257143 42.171429 40.8 22.4-0.342857 40.457143-18.4 40.8-40.8-0.228571-7.657143 5.828571-14.057143 13.371428-14.285714s14.057143 5.828571 14.285715 13.371428v0.8c0 38.4-30.971429 69.371429-69.142857 69.371429zM221.038274 367.771429c0.342857 22.971429 19.314286 41.257143 42.171429 40.8 22.4-0.342857 40.457143-18.4 40.8-40.8 0.342857-22.971429-17.942857-41.828571-40.8-42.171429s-41.828571 17.942857-42.171429 40.8c-0.114286 0.457143-0.114286 0.914286 0 1.371429zM497.723989 367.771429c0.342857 22.971429 19.2 41.257143 42.171428 40.914285 22.4-0.342857 40.457143-18.4 40.914286-40.8v-0.114285c0.342857-22.971429-17.942857-41.828571-40.8-42.171429s-41.828571 17.942857-42.171429 40.8c-0.114286 0.457143-0.114286 0.914286-0.114285 1.371429z" fill="#25467A" /><path d="M207.209703 436.914286h-55.314286c-15.314286 0-27.657143 12.342857-27.657143 27.657143 0 15.314286 12.342857 27.657143 27.657143 27.657142h55.314286c15.314286 0 27.657143-12.342857 27.657143-27.657142 0-15.2-12.342857-27.657143-27.657143-27.657143z m442.742857 0h-55.314286c-15.314286 0-27.657143 12.342857-27.657143 27.657143 0 15.314286 12.342857 27.657143 27.657143 27.657142h55.314286c15.314286 0 27.657143-12.342857 27.657143-27.657142 0-15.2-12.342857-27.657143-27.657143-27.657143z" fill="#FDEFBA" /><path d="M682.295417 744.228571c-46.4 27.2-87.771429 39.771429-73.6 64.114286s78.514286 42.857143 124.914286 15.657143 57.485714-89.828571 43.2-114.057143-48 7.085714-94.514286 34.285714z" fill="#F5F5F5" /></svg>