<?xml version="1.0" standalone="no"?><!DOCTYPE svg PUBLIC "-//W3C//DTD SVG 1.1//EN" "http://www.w3.org/Graphics/SVG/1.1/DTD/svg11.dtd"><svg class="icon" width="200px" height="200.00px" viewBox="0 0 1024 1024" version="1.1" xmlns="http://www.w3.org/2000/svg"><path d="M512 878.285714c-120.457143 0-182.971429-23.428571-228.571429-40.457143-22.4-8.342857-37.142857-13.942857-51.542857-13.942857-1.485714 0-3.085714 0.114286-4.685714 0.228572-21.485714 1.714286-37.485714 2.4-51.657143 2.4-36.571429 0-62.742857-5.257143-84.571428-17.142857-22.742857-12.342857-39.657143-31.771429-50.4-57.714286C14.857143 727.314286 0 693.257143 0 657.6c0-23.314286 6.057143-45.6 17.485714-65.142857-5.942857-21.828571-6.057143-44.914286-0.114285-67.428572 6.057143-22.514286 17.714286-42.4 33.714285-58.4-0.114286-22.628571 5.714286-45.028571 17.371429-65.142857s28-36.457143 47.771428-47.657143c5.714286-21.942857 17.257143-41.942857 33.6-58.4 16.457143-16.457143 36.457143-27.885714 58.4-33.6 11.2-19.657143 27.428571-36.114286 47.657143-47.771428 19.657143-11.314286 41.942857-17.371429 64.571429-17.371429h0.457143c15.885714-16.114286 35.885714-27.771429 58.4-33.828571 10.971429-2.971429 22.285714-4.457143 33.485714-4.457143 11.428571 0 22.857143 1.485714 33.828571 4.571429 19.542857-11.428571 41.828571-17.6 65.142858-17.6s45.6 6.057143 65.142857 17.6c10.971429-2.971429 22.4-4.571429 33.828571-4.571429 11.314286 0 22.514286 1.485714 33.485714 4.457143 22.514286 6.057143 42.514286 17.714286 58.4 33.828571h0.457143c22.628571 0 44.914286 5.942857 64.571429 17.371429 20.114286 11.657143 36.457143 28 47.657143 47.771428 21.942857 5.714286 41.942857 17.257143 58.4 33.6 16.457143 16.457143 27.885714 36.571429 33.6 58.4 19.657143 11.2 36.114286 27.428571 47.771428 47.657143 11.657143 20.114286 17.485714 42.514286 17.371429 65.142857 16.114286 15.885714 27.771429 35.885714 33.714286 58.4s5.942857 45.6-0.114286 67.428572c11.428571 19.542857 17.485714 41.828571 17.485714 65.142857 0 35.2-14.514286 68.914286-39.542857 93.142857-10.857143 28.228571-28.571429 49.257143-52.571429 62.742857-23.314286 13.142857-51.428571 18.971429-90.971428 18.971429-12.457143 0-26.857143-0.571429-43.771429-1.828572-1.828571-0.114286-3.542857-0.228571-5.257143-0.228571-15.314286 0-30.4 4.914286-53.257142 12.457143-44.8 14.971429-106.857143 35.428571-226.171429 35.428571z" fill="#25467A" /><path d="M951.771429 599.771429c10.628571-18.171429 14.285714-40.342857 8.457142-62.171429-5.828571-21.942857-20.114286-39.314286-38.4-49.714286 5.6-20.228571 3.314286-42.628571-8-62.285714s-29.6-32.685714-49.942857-38.057143c0.114286-21.028571-7.771429-42.057143-23.771428-58.057143s-37.028571-24-58.057143-23.771428c-5.257143-20.342857-18.4-38.628571-38.057143-49.942857s-42.057143-13.6-62.285714-8c-10.4-18.285714-27.771429-32.457143-49.714286-38.4-21.942857-5.828571-44.114286-2.171429-62.171429 8.457142-14.742857-14.971429-35.2-24.228571-57.942857-24.228571-22.628571 0-43.2 9.257143-57.942857 24.228571-18.171429-10.628571-40.342857-14.285714-62.171428-8.457142-21.942857 5.828571-39.314286 20.114286-49.714286 38.4-20.228571-5.6-42.628571-3.314286-62.285714 8-19.657143 11.314286-32.685714 29.6-38.057143 49.942857-21.028571-0.114286-42.057143 7.771429-58.057143 23.771428s-24 37.028571-23.771429 58.057143c-20.342857 5.257143-38.628571 18.4-49.942857 38.057143s-13.6 42.057143-8 62.285714c-18.285714 10.4-32.457143 27.771429-38.4 49.714286-5.828571 21.942857-2.171429 44.114286 8.457143 62.171429-14.742857 14.742857-24 35.2-24 57.828571 0 44.914286 36.457143 81.371429 81.371429 81.371429s81.371429-36.457143 81.371428-81.371429c0-14.971429-4.114286-29.028571-11.2-41.142857 9.942857-9.828571 17.6-22.4 21.485714-36.8 3.885714-14.514286 3.542857-29.142857-0.114285-42.628572 12.228571-6.857143 22.742857-17.028571 30.285714-30.057142 7.542857-13.028571 10.971429-27.2 10.857143-41.257143 13.6-3.542857 26.4-10.628571 37.028571-21.142857 10.628571-10.628571 17.714286-23.428571 21.142857-37.028572 13.942857 0.114286 28.228571-3.428571 41.257143-10.857143 13.028571-7.542857 23.085714-18.057143 30.057143-30.285714 13.485714 3.771429 28.114286 4 42.628572 0.114286 14.514286-3.885714 26.971429-11.428571 36.8-21.485715 12.114286 7.085714 26.171429 11.2 41.142857 11.2 14.971429 0 29.028571-4.114286 41.142857-11.2 9.828571 9.942857 22.4 17.6 36.8 21.485715 14.514286 3.885714 29.142857 3.542857 42.628571-0.114286 6.857143 12.228571 17.028571 22.742857 30.057143 30.285714 13.028571 7.542857 27.2 10.971429 41.257143 10.857143 3.542857 13.6 10.628571 26.4 21.142857 37.028572s23.428571 17.714286 37.028572 21.142857c-0.114286 13.942857 3.428571 28.228571 10.857142 41.257143 7.542857 13.028571 18.057143 23.085714 30.285715 30.057142-3.771429 13.485714-4 28.114286-0.114286 42.628572 3.885714 14.514286 11.428571 26.971429 21.485714 36.8-7.085714 12.114286-11.2 26.171429-11.2 41.142857 0 44.914286 36.457143 81.371429 81.371429 81.371429s81.371429-36.457143 81.371428-81.371429c-0.228571-22.628571-9.485714-43.085714-24.457142-57.828571z" fill="#FFF7EB" /><path d="M951.314286 643.657143c0 130.628571-38.971429 147.085714-150.742857 139.085714-67.314286-4.8-102.742857 47.428571-288.571429 47.428572s-221.257143-59.2-288.571429-54.057143c-111.771429 8.685714-150.742857-1.828571-150.742857-132.457143 0-209.257143 196.685714-378.971429 439.314286-378.971429s439.314286 169.714286 439.314286 378.971429z" fill="#FFF7EB" /><path d="M881.371429 681.485714c0 35.657143-6.171429 69.942857-17.714286 102.171429-17.828571 1.485714-38.742857 0.914286-63.085714-0.8-40-2.857143-68.8 14.514286-124.457143 28.914286 76.114286-42.857143 122.857143-113.6 115.314285-210.4-9.257143-117.6-90.285714-194.628571-128.685714-219.314286 165.142857 55.085714 218.628571 228.457143 218.628572 299.428571z" fill="#FFEDD1" /><path d="M877.714286 733.371429c-0.685714 8-9.371429 7.2-9.371429-0.8v-0.914286c0-196-118.4-354.971429-356.342857-354.971429s-356.342857 158.857143-356.342857 354.971429v0.571428c0 8-8.685714 8.8-9.371429 0.8-1.142857-12.342857-1.714286-26.4-1.714285-42.4 0-199.314286 132.685714-346.514286 367.428571-346.514285s367.428571 147.2 367.428571 346.514285c0 16-0.571429 30.171429-1.714285 42.742858z" fill="#FFE0B2" /><path d="M473.371429 310.171429c2.971429 35.428571 0.457143 56.571429-5.485715 57.142857s-13.257143-19.771429-16.228571-55.2-0.457143-64.571429 5.485714-65.142857c6.057143-0.457143 13.257143 27.771429 16.228572 63.2zM382.514286 332.342857c11.657143 33.371429 9.942857 44.114286 4.342857 46.285714-5.6 2.171429-13.142857-5.028571-24.685714-38.4-11.657143-33.371429-16.457143-62.285714-10.742858-64.457142 5.485714-2.171429 19.542857 23.2 31.085715 56.571428zM289.714286 375.542857c12.8 23.314286 11.885714 32.114286 6.628571 35.2-5.257143 3.2-12.685714-0.571429-25.485714-23.885714-12.8-23.314286-18.971429-44.685714-13.828572-47.885714 5.257143-3.085714 19.885714 13.257143 32.685715 36.571428zM222.514286 433.028571c18.4 19.2 19.771429 27.885714 15.542857 32.342858-4.228571 4.342857-12.342857 2.742857-30.742857-16.457143s-29.942857-38.285714-25.714286-42.628572c4.228571-4.457143 22.514286 7.542857 40.914286 26.742857zM174.857143 509.828571c23.885714 11.771429 28.114286 19.542857 25.714286 25.028572-2.4 5.6-10.742857 6.742857-34.514286-4.914286s-41.257143-25.714286-38.742857-31.314286c2.285714-5.485714 23.657143-0.571429 47.542857 11.2zM849.142857 509.828571c-23.885714 11.771429-28.114286 19.542857-25.714286 25.028572 2.4 5.6 10.742857 6.742857 34.514286-4.914286 23.885714-11.771429 41.257143-25.714286 38.742857-31.314286-2.285714-5.485714-23.657143-0.571429-47.542857 11.2zM801.485714 433.028571c-18.4 19.2-19.771429 27.885714-15.542857 32.342858 4.228571 4.342857 12.342857 2.742857 30.742857-16.457143s29.942857-38.285714 25.714286-42.628572c-4.228571-4.457143-22.514286 7.542857-40.914286 26.742857zM734.285714 375.542857c-12.8 23.314286-11.885714 32.114286-6.628571 35.2 5.257143 3.2 12.685714-0.571429 25.485714-23.885714 12.8-23.314286 18.971429-44.685714 13.828572-47.885714-5.257143-3.085714-19.885714 13.257143-32.685715 36.571428zM641.485714 332.342857c-11.657143 33.371429-9.942857 44.114286-4.342857 46.285714 5.6 2.171429 13.142857-5.028571 24.685714-38.4 11.657143-33.371429 16.457143-62.285714 10.742858-64.457142-5.485714-2.171429-19.542857 23.2-31.085715 56.571428zM550.628571 310.171429c-2.971429 35.428571-0.457143 56.571429 5.485715 57.142857s13.257143-19.771429 16.228571-55.2 0.457143-64.571429-5.485714-65.142857c-6.057143-0.457143-13.257143 27.771429-16.228572 63.2z" fill="#FFE0B2" /><path d="M512 728.114286c-35.314286 0-64-28.685714-64-64 0-7.085714 5.714286-12.8 12.8-12.8s12.8 5.714286 12.8 12.8c0 21.257143 17.142857 38.4 38.4 38.4s38.4-17.142857 38.4-38.4c0-7.085714 5.714286-12.8 12.8-12.8s12.8 5.714286 12.8 12.8c0 35.314286-28.685714 64-64 64zM345.6 561.714286c0 21.257143 17.142857 38.4 38.4 38.4s38.4-17.142857 38.4-38.4-17.142857-38.4-38.4-38.4c-21.142857 0-38.4 17.142857-38.4 38.4zM601.6 561.714286c0 21.257143 17.142857 38.4 38.4 38.4s38.4-17.142857 38.4-38.4-17.142857-38.4-38.4-38.4c-21.142857 0-38.4 17.142857-38.4 38.4z" fill="#25467A" /><path d="M332.8 625.714286h-51.2c-14.171429 0-25.6 11.428571-25.6 25.6 0 14.171429 11.428571 25.6 25.6 25.6h51.2c14.171429 0 25.6-11.428571 25.6-25.6 0-14.171429-11.428571-25.6-25.6-25.6z m409.6 0h-51.2c-14.171429 0-25.6 11.428571-25.6 25.6 0 14.171429 11.428571 25.6 25.6 25.6h51.2c14.171429 0 25.6-11.428571 25.6-25.6 0-14.171429-11.428571-25.6-25.6-25.6z" fill="#FF8A80" /></svg>