<?xml version="1.0" standalone="no"?><!DOCTYPE svg PUBLIC "-//W3C//DTD SVG 1.1//EN" "http://www.w3.org/Graphics/SVG/1.1/DTD/svg11.dtd"><svg class="icon" width="200px" height="200.00px" viewBox="0 0 1024 1024" version="1.1" xmlns="http://www.w3.org/2000/svg"><path d="M512 1024c-55.085714 0-107.085714-0.457143-146.514286-1.142857-76.228571-1.485714-81.257143-3.428571-90.285714-7.085714-19.657143-7.885714-33.257143-25.828571-36.457143-46.971429l-46.171428-38.857143c-14.4-12.114286-22.742857-30.285714-22.742858-49.828571V204.342857c0-13.028571 3.885714-25.6 11.085715-36.457143l38.628571-57.828571c-1.828571-5.485714-2.742857-11.2-2.742857-17.257143V54.971429c0-30.285714 24.685714-54.971429 54.971429-54.971429H752c30.285714 0 54.971429 24.685714 54.971429 54.971429v37.828571c0 6.057143-1.028571 11.771429-2.742858 17.257143l38.628572 57.828571c7.314286 10.857143 11.085714 23.428571 11.085714 36.457143V880c0 19.542857-8.228571 37.714286-22.742857 49.828571l-46.171429 38.857143c-3.2 21.142857-16.8 39.085714-36.457142 46.971429-9.028571 3.657143-14.057143 5.6-90.285715 7.085714-39.2 0.8-91.2 1.257143-146.285714 1.257143z" fill="#25467A" /><path d="M220.114286 207.314286h583.657143V880H220.114286z" fill="#D32F2F" /><path d="M256.228571 207.314286h73.257143V880h-73.257143z" fill="#ED3535" /><path d="M744.8 207.314286h59.085714V880h-59.085714z" fill="#B71C1C" /><path d="M803.885714 880c0 4.571429-1.828571 8.914286-4.8 11.428571l-59.314285 49.942858c-2.514286 2.171429-4.114286 5.828571-4.114286 9.714285v8c0 4.571429-2.285714 8.685714-5.714286 10.057143-15.428571 6.171429-420.571429 6.171429-436 0-3.428571-1.371429-5.714286-5.371429-5.714286-10.057143v-8c0-3.885714-1.485714-7.542857-4.114285-9.714285L224.914286 891.428571c-2.971429-2.514286-4.8-6.742857-4.8-11.428571h583.771428z" fill="#EEEEEE" /><path d="M363.2 972.457143c-18.971429-0.342857-35.085714-0.914286-47.085714-1.371429-0.114286-0.8-0.114286-1.714286-0.114286-2.628571V958.857143c0-4.685714-1.371429-9.028571-3.657143-11.542857l-52.571428-59.657143c-1.6-1.828571-2.857143-4.457143-3.542858-7.542857h73.828572c0.571429 3.085714 1.714286 5.714286 3.085714 7.542857l26.628572 59.657143c1.942857 2.514286 3.085714 6.971429 3.085714 11.542857v9.6c0 1.371429 0.114286 2.742857 0.342857 4z" fill="#FFFFFF" /><path d="M316.114286 971.085714c11.885714 0.571429 28 1.028571 46.971428 1.371429l-46.971428-1.371429zM377.6 880h-73.828571" fill="#FFFFFF" /><path d="M803.885714 880c0 4.571429-1.828571 8.914286-4.8 11.428571l-59.314285 49.942858c-2.514286 2.171429-4.114286 5.828571-4.114286 9.714285v8c0 4.571429-2.285714 8.685714-5.714286 10.057143-3.2 1.257143-22.742857 2.285714-52.114286 3.085714 0.457143-0.571429 0.914286-1.142857 1.257143-1.714285 1.371429-2.285714 2.171429-5.371429 2.171429-8.571429V952c0-4.685714 1.485714-9.142857 4.114286-11.657143l59.314285-60.228571 0.114286-0.114286h59.085714z" fill="#757575" /><path d="M803.885714 204.342857v6.742857H220.114286v-6.742857c0-2.971429 0.914286-5.942857 2.628571-8.457143l51.657143-77.257143c2.971429-4.457143 4.571429-9.485714 4.571429-14.628571V91.428571h466.057142v12.571429c0 5.142857 1.6 10.285714 4.571429 14.628571l51.657143 77.257143c1.714286 2.514286 2.628571 5.485714 2.628571 8.457143z" fill="#E53935" /><path d="M803.885714 204.342857v6.742857h-58.514285v-1.142857c0-3.314286-0.914286-6.628571-2.514286-9.485714l-49.142857-86.057143c-2.857143-4.914286-4.342857-10.514286-4.342857-16.342857v-6.742857H745.142857v12.571428c0 5.142857 1.6 10.285714 4.571429 14.628572l51.657143 77.371428c1.6 2.514286 2.514286 5.485714 2.514285 8.457143z" fill="#CF3330" /><path d="M360.228571 91.314286l-30.742857 119.771428h-73.257143l65.714286-119.771428z" fill="#F56967" /><path d="M725.028571 651.085714c-28 81.371429-71.428571 156-90.4 229.028572H582.857143c39.542857-97.028571 106.742857-178.285714 140-278.285715 28.342857-85.371429 40-208.457143-6.857143-390.628571-0.228571-1.028571-0.457143-2.057143-0.8-2.971429-9.485714-36.571429-21.371429-75.428571-35.771429-116.8h50.742858c9.028571 40.914286 16.114286 79.885714 21.6 116.8 0.114286 1.028571 0.342857 2.057143 0.457142 2.971429 28.342857 197.142857 7.885714 337.828571-27.2 439.885714z" fill="#FAFAFA" /><path d="M745.371429 106.742857H278.628571c-6.285714 0-11.428571-5.142857-11.428571-11.428571V61.714286c0-6.285714 5.142857-11.428571 11.428571-11.428572h466.857143c6.285714 0 11.428571 5.142857 11.428572 11.428572v33.6c-0.114286 6.285714-5.142857 11.428571-11.542857 11.428571z" fill="#EEEEEE" /><path d="M512 589.028571c-35.314286 0-64-28.685714-64-64 0-7.085714 5.714286-12.8 12.8-12.8s12.8 5.714286 12.8 12.8c0 21.257143 17.257143 38.4 38.4 38.4s38.4-17.142857 38.4-38.4c0-7.085714 5.714286-12.8 12.8-12.8s12.8 5.714286 12.8 12.8c0 35.428571-28.685714 64-64 64z" fill="#25467A" /><path d="M384 422.628571m-38.4 0a38.4 38.4 0 1 0 76.8 0 38.4 38.4 0 1 0-76.8 0Z" fill="#25467A" /><path d="M640 422.628571m-38.4 0a38.4 38.4 0 1 0 76.8 0 38.4 38.4 0 1 0-76.8 0Z" fill="#25467A" /><path d="M332.8 486.628571h-51.2c-14.171429 0-25.6 11.428571-25.6 25.6s11.428571 25.6 25.6 25.6h51.2c14.171429 0 25.6-11.428571 25.6-25.6 0-14.057143-11.428571-25.485714-25.6-25.6zM742.4 486.628571h-51.2c-14.171429 0-25.6 11.428571-25.6 25.6s11.428571 25.6 25.6 25.6h51.2c14.171429 0 25.6-11.428571 25.6-25.6 0-14.057143-11.428571-25.485714-25.6-25.6z" fill="#F8BBD0" /></svg>