<?xml version="1.0" standalone="no"?><!DOCTYPE svg PUBLIC "-//W3C//DTD SVG 1.1//EN" "http://www.w3.org/Graphics/SVG/1.1/DTD/svg11.dtd"><svg t="1655361352560" class="icon" viewBox="0 0 1024 1024" version="1.1" xmlns="http://www.w3.org/2000/svg" p-id="1236" xmlns:xlink="http://www.w3.org/1999/xlink" width="200" height="200"><defs><style type="text/css"></style></defs><path d="M512 512.8704m-432.3328 0a432.3328 432.3328 0 1 0 864.6656 0 432.3328 432.3328 0 1 0-864.6656 0Z" fill="#FF6161" p-id="1237"></path><path d="M287.0272 418.7136c-85.0432 0-160.4096 41.3696-207.104 105.0624 4.5568 182.7328 122.368 337.3056 285.952 396.032 103.2192-33.28 177.92-130.048 177.92-244.3776 0-141.7216-114.944-256.7168-256.768-256.7168z" fill="#FF7D7D" p-id="1238"></path><path d="M744.8576 358.5536c-63.488-63.488-166.4-63.488-229.888 0l-229.0688 229.0688 185.3952 185.3952c24.576 24.576 64.4608 24.576 89.0368 0l184.5248-184.5248c63.488-63.5392 63.488-166.5024 0-229.9392z" fill="#FFCAC7" p-id="1239"></path><path d="M516.6592 358.5024c-63.488-63.488-166.4-63.488-229.888 0-63.488 63.488-63.488 166.4 0 229.888l184.5248 184.5248c24.576 24.576 64.4608 24.576 89.0368 0l185.3952-185.3952-229.0688-229.0176z" fill="#FFFFFF" p-id="1240"></path></svg>