<?xml version="1.0" standalone="no"?><!DOCTYPE svg PUBLIC "-//W3C//DTD SVG 1.1//EN" "http://www.w3.org/Graphics/SVG/1.1/DTD/svg11.dtd"><svg t="1655364362496" class="icon" viewBox="0 0 1024 1024" version="1.1" xmlns="http://www.w3.org/2000/svg" p-id="2671" xmlns:xlink="http://www.w3.org/1999/xlink" width="200" height="200"><defs><style type="text/css"></style></defs><path d="M512 964.457143c-203.542857 0-361.485714-54.971429-444.8-154.628572C38.971429 776 19.428571 737.142857 9.257143 694.514286c-9.942857-41.485714-11.085714-86.742857-3.314286-134.742857-8.114286-49.828571-7.885714-97.6 0.685714-142.171429 8.914286-46.628571 26.857143-89.828571 53.371429-128.228571C107.657143 220.342857 182.857143 167.542857 278.171429 136.114286c12.342857-14.4 33.371429-27.885714 68.914285-35.885715 23.542857-5.257143 46.857143-7.885714 71.428572-7.885714h0.457143c9.371429-3.428571 19.542857-5.257143 30.4-5.257143 1.371429 0 2.742857 0 4.114285 0.114286 9.6-16.914286 27.542857-27.771429 47.657143-27.771429h21.828572c20.114286 0 38.057143 10.742857 47.657142 27.771429 1.371429 0 2.742857-0.114286 4.114286-0.114286 10.857143 0 21.142857 1.828571 30.4 5.257143h0.457143c24.571429 0 47.885714 2.628571 71.428571 7.885714 23.885714 5.371429 51.771429 15.771429 69.028572 35.885715 95.314286 31.542857 170.4 84.228571 218.057143 153.257143 26.514286 38.4 44.457143 81.485714 53.371428 128.228571 8.457143 44.571429 8.685714 92.342857 0.685715 142.171429 7.657143 48 6.628571 93.257143-3.314286 134.742857-10.171429 42.628571-29.714286 81.371429-57.942857 115.314285-83.428571 99.657143-241.371429 154.628571-444.914286 154.628572z" fill="#25467A" p-id="2672"></path><path d="M512 149.828571c-308.571429 0-502.971429 156.914286-457.371429 409.942858C9.028571 811.428571 240.228571 916.457143 512 916.457143s502.971429-105.028571 457.371429-356.571429C1014.971429 306.857143 820.571429 149.828571 512 149.828571z" fill="#EE6F0B" p-id="2673"></path><path d="M969.371429 559.885714c45.6 251.542857-185.714286 356.571429-457.371429 356.571429-76.914286 0-150.628571-8.457143-215.657143-26.171429 26.857143 3.428571 54.514286 5.257143 82.628572 5.257143 279.428571 0 552-101.6 478.057142-335.657143 75.428571-180.685714-24.685714-318.4-110.057142-372.457143 165.6 60.685714 254.857143 192.114286 222.4 372.457143z" fill="#E0690A" p-id="2674"></path><path d="M696.457143 205.714286c38.057143-30.285714 8.571429-49.828571-30.057143-58.628572-38.514286-8.685714-85.828571-10.971429-154.4 5.714286-68.571429-16.685714-115.885714-14.4-154.4-5.714286-38.514286 8.685714-68 28.228571-30.057143 58.628572-57.828571 19.657143-75.885714 58.971429-28.914286 73.028571 46.971429 14.057143 142.857143-2.057143 213.371429-17.942857 70.514286 15.885714 166.4 32 213.371429 17.942857 46.971429-14.057143 28.914286-53.257143-28.914286-73.028571z" fill="#A66D19" p-id="2675"></path><path d="M580.228571 222.057143c20.457143-23.885714 34.171429-64.114286 16.114286-80-17.942857-15.885714-58.971429-1.942857-84.342857 17.714286-25.371429-19.657143-66.4-33.6-84.342857-17.714286-17.942857 15.885714-4.342857 56.114286 16.114286 80-21.371429 23.2-36.457143 62.857143-19.085715 79.428571 17.371429 16.457143 61.257143 4.114286 87.314286-14.628571 26.057143 18.742857 69.942857 31.085714 87.314286 14.628571 17.371429-16.457143 2.285714-56.228571-19.085715-79.428571z" fill="#A66D19" p-id="2676"></path><path d="M390.971429 197.028571a121.028571 40.114286 0 1 0 242.057142 0 121.028571 40.114286 0 1 0-242.057142 0Z" fill="#CC861F" p-id="2677"></path><path d="M541.828571 152.228571l-12.457142-39.885714c-0.914286-2.857143-3.542857-4.8-6.514286-4.8h-21.828572c-2.971429 0-5.6 1.942857-6.514285 4.8l-12.457143 39.885714c-3.428571 10.857143-12.228571 19.2-23.2 21.714286-18.628571 4.228571-30.514286 10.628571-30.514286 17.828572 0 12.8 37.371429 23.2 83.542857 23.2S595.428571 204.571429 595.428571 191.771429c0-7.2-11.885714-13.6-30.514285-17.828572-10.857143-2.514286-19.657143-10.857143-23.085715-21.714286z" fill="#915F16" p-id="2678"></path><path d="M512 618.171429c-35.314286 0-64-28.685714-64-64 0-7.085714 5.714286-12.8 12.8-12.8s12.8 5.714286 12.8 12.8c0 21.257143 17.142857 38.4 38.4 38.4s38.4-17.142857 38.4-38.4c0-7.085714 5.714286-12.8 12.8-12.8s12.8 5.714286 12.8 12.8c0 35.314286-28.685714 64-64 64zM345.6 451.771429c0 21.257143 17.142857 38.4 38.4 38.4s38.4-17.142857 38.4-38.4-17.142857-38.4-38.4-38.4c-21.142857 0-38.4 17.142857-38.4 38.4zM601.6 451.771429c0 21.257143 17.142857 38.4 38.4 38.4s38.4-17.142857 38.4-38.4-17.142857-38.4-38.4-38.4c-21.142857 0-38.4 17.142857-38.4 38.4z" fill="#25467A" p-id="2679"></path><path d="M332.8 515.771429h-51.2c-14.171429 0-25.6 11.428571-25.6 25.6s11.428571 25.6 25.6 25.6h51.2c14.171429 0 25.6-11.428571 25.6-25.6s-11.428571-25.6-25.6-25.6z m409.6 0h-51.2c-14.171429 0-25.6 11.428571-25.6 25.6s11.428571 25.6 25.6 25.6h51.2c14.171429 0 25.6-11.428571 25.6-25.6s-11.428571-25.6-25.6-25.6z" fill="#F29F25" p-id="2680"></path></svg>