<?xml version="1.0" standalone="no"?><!DOCTYPE svg PUBLIC "-//W3C//DTD SVG 1.1//EN" "http://www.w3.org/Graphics/SVG/1.1/DTD/svg11.dtd"><svg class="icon" width="200px" height="200.00px" viewBox="0 0 1024 1024" version="1.1" xmlns="http://www.w3.org/2000/svg"><path d="M327.90626 1024c-34.853253 0-64.335677-26.739873-70.27787-63.650039l-22.054682-138.156009-25.48287-39.309899c-31.539337-6.627832-55.308113-34.73898-55.308113-68.220957v-4.799465c0-15.655396 5.256556-30.396608 14.398393-42.280995v-157.696686c-9.027564-11.884388-14.398393-26.6256-14.398393-42.280995V462.80549c0-13.255663 3.771008-25.711416 10.170294-36.224528-4.570918-20.911952-4.456645-43.880817 0.571364-66.963955 8.799018-39.995536 31.767883-79.305435 66.506864-114.044415 19.197857-37.367258 55.19384-68.906595 107.188037-93.932373 31.882156-15.312577 49.937284-22.740319 63.078674-28.111149 15.655396-6.399286 22.740319-9.25611 42.85236-21.597589 1.257003-0.799911 2.285459-1.485548 3.08537-2.056913-1.599821-1.257003-3.199643-2.628278-4.913737-3.885281l-0.114273-0.114273c-12.684299-9.484656-20.45486-23.997322-21.369044-39.652717-0.685638-12.912845 5.02801-56.108024 60.107577-56.108024 34.853253 0 55.765205 8.456199 88.447272 21.59759 41.366812 16.683852 70.849236 40.452628 87.761634 70.963508 22.626046 16.798125 57.707845 48.451735 76.677156 93.589555 11.541569 7.884834 22.054681 16.798125 31.539337 26.6256 10.627385 7.427742 30.853699 23.083138 50.051557 46.052003 29.139605 34.73898 45.480638 74.048878 47.309006 113.701596 0.799911 16.798125 0.342819 35.081799-4.913738 53.822564 6.513559 10.627385 10.170293 22.968865 10.170294 36.224528v4.799465c0 15.655396-5.256556 30.396608-14.398393 42.280995V667.35409c9.027564 11.884388 14.398393 26.6256 14.398393 42.280995v4.799465c0 33.481977-23.768776 61.593126-55.308113 68.220957l-25.48287 39.309899-22.054682 138.156009c-5.827921 36.910166-35.424618 63.650039-70.27787 63.650039h-367.958934z" fill="#25467A" /><path d="M814.251981 376.415132c1.599821 33.59625-4.570918 54.165383-27.425511 75.305881H656.783841c4.570918-4.913737 85.361902-58.050664 94.275193-98.0462 13.027118-58.507756-19.997768-103.188483-19.997769-103.188483s79.991072 57.593572 83.190716 125.928802z" fill="#FF80AB" /><path d="M584.791876 451.721013c-28.56824-26.511327-5.942194-54.05111 2.399732-60.793215 43.652271-34.967526 69.363687-46.052003 86.047539-73.477513 38.738534-63.650039 3.999554-104.902578 3.999554-104.902578s44.337909 26.054235 56.793661 39.76699c16.455306 18.169401 30.625153 43.309452 33.024886 77.019975 3.656735 50.394376-56.679388 89.132909-98.846111 122.386341h-83.419261z" fill="#FCE4EC" /><path d="M717.691329 296.538333c-2.056913 27.311238-21.826135 47.423279-45.366365 64.221404-36.68162 26.282781-82.390805 44.566455-82.390805 70.163597 0 2.056913 0.114273 3.999554 0.342819 5.942194 0.457092 5.02801 1.599821 10.056021 3.08537 14.855485h-149.697578c-0.914184-4.913737-1.485548-10.056021-1.371276-15.312576v-0.342819c0-2.399732 0.228546-4.913737 0.457092-7.31347 1.257003-10.398839 4.913737-21.369044 11.655842-32.453521 7.313469-11.998661 18.169401-24.340141 33.710523-36.795893C633.129338 243.287133 654.841201 176.094632 654.841201 176.094632s19.197857 11.084477 36.68162 37.138712c1.94264 2.856824 3.885281 6.056467 5.713648 9.25611 8.799018 15.541123 16.569579 35.424618 19.997768 60.107578 0.685638 4.913737 0.799911 9.484656 0.457092 13.941301z" fill="#FF80AB" /><path d="M568.565116 451.721013c-8.684745-6.056467-16.22676-13.027118-21.369044-20.911952-4.570918-6.970651-7.199197-14.741212-7.199197-23.311683 0-29.596697 69.47796-55.079567 116.215601-91.304096 23.768776-18.397947 41.709631-39.652717 41.709631-65.706952 0-10.513112-1.599821-20.569133-4.2281-29.939516-0.685638-2.514005-1.485548-4.913737-2.399732-7.31347-16.455306-46.394822-59.307667-77.362794-72.56333-86.047539-2.514005-1.714094-3.999554-2.514005-3.999553-2.514005s6.856378 67.878139-138.041737 184.09374c-55.536659 44.566455-52.222743 87.533088-34.053342 119.986608 2.742551 4.799464 5.713648 9.484656 9.027564 13.827028 0 0 0 0.114273 0.114273 0.114273 2.399732 3.199643 4.799464 6.17074 7.313469 9.027564h109.473497zM430.066287 451.721013H231.459882c-31.65361-31.767883-31.996429-106.273853 41.70963-175.408994 23.768776-22.283227 55.308113-44.109363 95.989287-63.650039 0 0-78.391251 39.652717-69.020868 138.270282 4.685191 48.908827 128.785627 99.646022 129.928356 100.788751z" fill="#FCE4EC" /><path d="M378.07209 345.44716c0 57.707845 83.533534 103.645575 87.99018 106.388126H373.729718c-23.083138-6.056467-57.593572-21.59759-81.590894-47.651824-25.025778-27.196965-41.366812-77.248521-18.969312-127.75717 11.998661-27.311238 38.281442-54.851021 87.647361-78.619797 69.592233-33.481977 68.563776-26.397054 110.616226-52.10847 34.73898-21.254771 31.767883-50.394376 26.168508-67.192501-2.399732-6.970651-5.256556-11.884388-5.942194-13.141391 0-0.114273-0.114273-0.114273-0.114273-0.114272 2.171186 2.171186 71.077781 36.453074 34.510434 106.273853-37.252985 70.849236-147.983484 116.101328-147.983484 173.923446z" fill="#FF80AB" /><path d="M624.444593 157.125321c0 54.279656-52.794108 95.303649-128.899899 167.752706s4.342373 121.472157 14.855485 126.842986c0 0 0.114273 0 0.114273 0.114273h-74.963063c-2.971097-1.14273-5.942194-2.285459-8.913291-3.542462-48.337462-20.340587-92.104006-54.965294-89.247182-113.701595 6.056467-127.185805 179.637094-138.95592 182.151099-201.006138 0.914184-21.59759-9.25611-39.881263-21.140497-53.822564-0.342819-0.342819-0.685638-0.799911-0.914184-1.14273-8.456199-9.713202-17.598036-17.140944-24.225868-22.054681-1.828367-1.371276-1.599821-3.313916-0.342819-4.570919l0.114273-0.114273 0.228546-0.228546 0.228546-0.114273c0.114273-0.114273 0.228546-0.114273 0.342819-0.228546 0.114273 0 0.228546-0.114273 0.342819-0.114273 0.114273 0 0.228546-0.114273 0.342819-0.114273 0.114273 0 0.228546-0.114273 0.457092-0.114273h1.485548c33.481977 3.885281 119.64379 19.426403 142.269836 76.448611 3.771008 8.684745 5.713648 18.626493 5.713648 29.71097z" fill="#FCE4EC" /><path d="M600.218726 218.946993c-55.079567 59.42194-135.413458 85.818993-142.955474 149.240486-6.399286 53.708291 42.509541 78.162705 53.136927 83.533534 0 0 0.114273 0 0.114273 0.114273H469.719005c-6.17074-2.742551-63.535766-24.111595-63.535767-78.391251 0-95.417922 180.894097-121.814976 180.894097-211.176431 0-73.820333-84.676264-102.617119-114.044415-110.38768l0.114273-0.114273 0.228546-0.228546 0.228546-0.114273c0.114273-0.114273 0.228546-0.114273 0.342819-0.228546 0.114273 0 0.228546-0.114273 0.342819-0.114273 0.114273 0 0.228546-0.114273 0.342819-0.114273 0.114273 0 0.228546-0.114273 0.457092-0.114273h1.485548c33.481977 3.885281 119.64379 19.426403 142.269836 76.448611 3.656735 8.799018 15.998214 54.279656-18.626492 91.646915z" fill="#FF80AB" /><path d="M283.11126 805.738645l23.654503 148.897668c1.94264 12.455753 10.627385 21.369044 20.683406 21.369044h368.873116c10.056021 0 18.740766-8.913291 20.683406-21.369044l23.654503-148.897668H283.11126z" fill="#FFCC80" /><path d="M647.184912 706.663988H218.889856l64.221404 99.074657h457.77748l64.221404-99.074657z" fill="#FFB74D" /><path d="M218.889856 466.690771h586.220288v241.573039h-586.220288z" fill="#FFCC80" /><path d="M799.967861 488.63118H224.032139c-10.855931 0-19.540676-8.799018-19.540676-19.540677v-4.799464c0-10.855931 8.799018-19.540676 19.540676-19.540676h575.935722c10.855931 0 19.540676 8.799018 19.540676 19.540676v4.799464c0 10.741658-8.799018 19.540676-19.540676 19.540677z" fill="#FFB74D" /><path d="M799.967861 736.032139H224.032139c-10.855931 0-19.540676-8.799018-19.540676-19.540676v-4.799464c0-10.855931 8.799018-19.540676 19.540676-19.540677h575.935722c10.855931 0 19.540676 8.799018 19.540676 19.540677v4.799464c0 10.741658-8.799018 19.540676-19.540676 19.540676z" fill="#FFCC80" /><path d="M512 715.805825c-35.310345 0-63.992858-28.682513-63.992858-63.992858 0-7.084924 5.713648-12.798572 12.798572-12.798571s12.798572 5.713648 12.798571 12.798571c0 21.254771 17.255217 38.395715 38.395715 38.395715s38.395715-17.140944 38.395715-38.395715c0-7.084924 5.713648-12.798572 12.798571-12.798571s12.798572 5.713648 12.798572 12.798571c0 35.424618-28.682513 63.992858-63.992858 63.992858z" fill="#25467A" /><path d="M384.014284 549.424395m-38.395715 0a38.395715 38.395715 0 1 0 76.79143 0 38.395715 38.395715 0 1 0-76.79143 0Z" fill="#25467A" /><path d="M639.985716 549.424395m-38.395715 0a38.395715 38.395715 0 1 0 76.79143 0 38.395715 38.395715 0 1 0-76.79143 0Z" fill="#25467A" /><path d="M332.819998 613.417253h-51.194287c-14.169847 0-25.597143 11.427296-25.597143 25.597143 0 14.169847 11.427296 25.597143 25.597143 25.597143h51.194287c14.169847 0 25.597143-11.427296 25.597143-25.597143 0-14.055574-11.427296-25.48287-25.597143-25.597143zM742.374289 613.417253h-51.194287c-14.169847 0-25.597143 11.427296-25.597143 25.597143 0 14.169847 11.427296 25.597143 25.597143 25.597143h51.194287c14.169847 0 25.597143-11.427296 25.597143-25.597143 0-14.055574-11.427296-25.48287-25.597143-25.597143z" fill="#FFF3E0" /><path d="M730.489901 870.645687l-35.424618-35.424618 29.482424-29.482424h-32.339248L678.838522 819.108582l-13.369936-13.369937H633.129338l29.71097 29.596697-39.538444 39.538444-39.538445-39.538444 29.482424-29.482424h-32.339248l-13.369936 13.369937-13.255664-13.48421h-32.339247l29.482423 29.482424-39.424171 39.538444-39.538444-39.424171 29.482423-29.482424H469.719005l-13.369937 13.369937-13.369936-13.369937h-32.339248l29.482424 29.482424-39.538445 39.538444L361.159692 835.335342l29.482424-29.482424h-32.339248l-13.369936 13.369937-13.369937-13.369937h-32.339248l29.482424 29.482424-35.424618 35.424618 7.656289 48.223189 27.768329 27.76833-18.397946 18.397946c3.885281 6.742105 10.170293 11.084477 17.140944 11.084477h4.113826l13.369937-13.369936 13.369936 13.369936h32.339248L361.159692 946.637206l39.538444-39.538445 39.538445 39.538445-29.482424 29.482424h32.339248l13.369936-13.369937 13.369937 13.369937h32.339247l-29.482423-29.482424 39.538444-39.538445 39.538444 39.538445-29.482424 29.482424h31.996429l13.369937-13.369937 13.369936 13.369937h32.339248l-29.482424-29.482424 39.538445-39.538445 39.538444 39.538445-29.482424 29.482424h32.339248l13.369936-13.369937 13.369937 13.369937h4.113826c6.970651 0 13.255663-4.342373 17.140944-11.084478l-18.397946-18.397946 27.768329-27.76833 7.31347-48.223189z m-385.442696 59.764758l-39.538445-39.538444 39.538445-39.538444 39.538444 39.538444-39.538444 39.538444z m111.301863 0l-39.538444-39.538444 39.538444-39.538444 39.538445 39.538444-39.538445 39.538444z m111.301864 0l-39.538445-39.538444 39.538445-39.538444 39.538444 39.538444-39.538444 39.538444z m111.301863 0l-39.538444-39.538444 39.538444-39.538444 39.538445 39.538444-39.538445 39.538444z" fill="#FFD699" /><path d="M766.257337 523.712978c-9.027564 0-16.341033-7.313469-16.341033-16.341033v-83.76208h32.567794V507.371945c0.114273 9.027564-7.199197 16.341033-16.226761 16.341033z" fill="#FF80AB" /><path d="M244.372726 500.515567c-9.027564 0-16.341033-7.313469-16.341033-16.341033v-83.76208H260.599487v83.76208c0.114273 9.027564-7.199197 16.341033-16.226761 16.341033zM292.138824 526.798348c-11.427296 0-20.569133-9.25611-20.569133-20.569133v-72.791875h41.138266V506.229215c0 11.427296-9.25611 20.569133-20.569133 20.569133z" fill="#FCE4EC" /></svg>